<svg width="27" height="38" viewBox="0 0 27 38" fill="none" xmlns="http://www.w3.org/2000/svg">
<path d="M5.06091 35.132C3.79691 35.132 2.75291 34.716 1.92891 33.884C1.10491 33.044 0.692906 32.016 0.692906 30.8C0.692906 29.584 1.10491 28.56 1.92891 27.728C2.75291 26.888 3.79691 26.468 5.06091 26.468C5.82891 26.468 6.53291 26.652 7.17291 27.02C7.81291 27.38 8.30891 27.868 8.66091 28.484L8.09691 28.808C7.81691 28.288 7.40491 27.872 6.86091 27.56C6.31691 27.24 5.71691 27.08 5.06091 27.08C3.97291 27.08 3.07691 27.44 2.37291 28.16C1.67691 28.872 1.32891 29.752 1.32891 30.8C1.32891 31.848 1.67691 32.732 2.37291 33.452C3.07691 34.164 3.97291 34.52 5.06091 34.52C5.71691 34.52 6.32091 34.36 6.87291 34.04C7.42491 33.72 7.84091 33.292 8.12091 32.756L8.68491 33.08C8.34091 33.704 7.84491 34.204 7.19691 34.58C6.54891 34.948 5.83691 35.132 5.06091 35.132ZM13.3406 26.6C14.4846 26.6 15.4286 27.008 16.1726 27.824C16.9246 28.632 17.3006 29.624 17.3006 30.8C17.3006 31.976 16.9246 32.972 16.1726 33.788C15.4286 34.596 14.4846 35 13.3406 35H10.1846V26.6H13.3406ZM13.3406 34.4C14.3166 34.4 15.1166 34.056 15.7406 33.368C16.3646 32.672 16.6766 31.816 16.6766 30.8C16.6766 29.784 16.3646 28.932 15.7406 28.244C15.1166 27.548 14.3166 27.2 13.3406 27.2H10.8206V34.4H13.3406ZM22.7914 35.132C21.5274 35.132 20.4834 34.716 19.6594 33.884C18.8354 33.044 18.4234 32.016 18.4234 30.8C18.4234 29.584 18.8354 28.56 19.6594 27.728C20.4834 26.888 21.5274 26.468 22.7914 26.468C23.5594 26.468 24.2634 26.652 24.9034 27.02C25.5434 27.38 26.0394 27.868 26.3914 28.484L25.8274 28.808C25.5474 28.288 25.1354 27.872 24.5914 27.56C24.0474 27.24 23.4474 27.08 22.7914 27.08C21.7034 27.08 20.8074 27.44 20.1034 28.16C19.4074 28.872 19.0594 29.752 19.0594 30.8C19.0594 31.848 19.4074 32.732 20.1034 33.452C20.8074 34.164 21.7034 34.52 22.7914 34.52C23.4474 34.52 24.0514 34.36 24.6034 34.04C25.1554 33.72 25.5714 33.292 25.8514 32.756L26.4154 33.08C26.0714 33.704 25.5754 34.204 24.9274 34.58C24.2794 34.948 23.5674 35.132 22.7914 35.132Z" fill="black"/>
<path d="M22.3116 12.6473L22.8293 10.7154C23.4335 8.46034 23.7356 7.3328 23.5081 6.35703C23.3285 5.58657 22.9244 4.88668 22.347 4.34587C21.6157 3.66095 20.4881 3.35883 18.2331 2.75458C15.978 2.15033 14.8504 1.84821 13.8747 2.07573C13.1042 2.25537 12.4043 2.65945 11.8635 3.23687C11.2771 3.86298 10.9713 4.77957 10.5162 6.44561C10.4398 6.7254 10.3592 7.02633 10.2723 7.35057L10.2722 7.35077L9.75458 9.28263C9.15033 11.5377 8.84821 12.6652 9.07573 13.641C9.25537 14.4115 9.65945 15.1114 10.2369 15.6522C10.9682 16.3371 12.0957 16.6392 14.3508 17.2435L14.3508 17.2435C16.3834 17.7881 17.4999 18.0873 18.415 17.9744C18.5152 17.9621 18.6129 17.9448 18.7092 17.9223C19.4796 17.7427 20.1795 17.3386 20.7203 16.7612C21.4052 16.0299 21.7074 14.9024 22.3116 12.6473Z" stroke="black" stroke-width="1.5"/>
<path d="M18.415 17.9741C18.2065 18.6126 17.8399 19.1902 17.347 19.6519C16.6157 20.3368 15.4881 20.6389 13.2331 21.2432C10.978 21.8474 9.85044 22.1495 8.87466 21.922C8.10421 21.7424 7.40432 21.3383 6.86351 20.7609C6.17859 20.0296 5.87647 18.9021 5.27222 16.647L4.75458 14.7151C4.15033 12.46 3.84821 11.3325 4.07573 10.3567C4.25537 9.58627 4.65945 8.88638 5.23687 8.34557C5.96815 7.66065 7.09569 7.35853 9.35077 6.75428C9.77741 6.63996 10.1637 6.53646 10.5162 6.44531" stroke="black" stroke-width="1.5"/>
<path d="M13.7769 10L18.6065 11.2941" stroke="black" stroke-width="1.5" stroke-linecap="round"/>
<path d="M13 12.8977L15.8978 13.6742" stroke="black" stroke-width="1.5" stroke-linecap="round"/>
</svg>
