<svg width="26" height="39" viewBox="0 0 26 39" fill="none" xmlns="http://www.w3.org/2000/svg">
<path d="M3.75458 14.716L4.27222 16.6479C4.87647 18.9029 5.17859 20.0305 5.86351 20.7618C6.40432 21.3392 7.10421 21.7433 7.87466 21.9229C8.85044 22.1504 9.97798 21.8483 12.2331 21.244C14.4881 20.6398 15.6157 20.3377 16.347 19.6528C16.4077 19.5959 16.4664 19.5373 16.5233 19.477C16.1891 19.449 15.852 19.3952 15.5094 19.3271C14.8133 19.1887 13.9862 18.967 13.008 18.7049L12.9012 18.6763L12.8764 18.6697C11.8121 18.3845 10.9228 18.1457 10.2128 17.8892C9.46607 17.6195 8.7876 17.287 8.21148 16.7474C7.41753 16.0038 6.86193 15.0414 6.61491 13.982C6.43567 13.2133 6.48691 12.4594 6.62666 11.6779C6.76058 10.929 7.00109 10.0315 7.28926 8.95613L7.28926 8.95611L7.82365 6.96174L7.84245 6.8916C5.9219 7.40896 4.91101 7.71505 4.23687 8.34646C3.65945 8.88726 3.25537 9.58715 3.07573 10.3576C2.84821 11.3334 3.15033 12.4609 3.75458 14.716Z" fill="#FE5704"/>
<path fill-rule="evenodd" clip-rule="evenodd" d="M21.8293 10.7154L21.3116 12.6473C20.7074 14.9024 20.4052 16.0299 19.7203 16.7612C19.1795 17.3386 18.4796 17.7427 17.7092 17.9223C17.6129 17.9448 17.5152 17.9621 17.415 17.9744C16.4999 18.0873 15.3834 17.7881 13.3508 17.2435C11.0957 16.6392 9.96815 16.3371 9.23687 15.6522C8.65945 15.1114 8.25537 14.4115 8.07573 13.641C7.84821 12.6652 8.15033 11.5377 8.75458 9.28263L9.27222 7.35077C9.3591 7.02654 9.43979 6.7254 9.51621 6.44561C9.97128 4.77957 10.2771 3.86298 10.8635 3.23687C11.4043 2.65945 12.1042 2.25537 12.8747 2.07573C13.8504 1.84821 14.978 2.15033 17.2331 2.75458C19.4881 3.35883 20.6157 3.66095 21.347 4.34587C21.9244 4.88668 22.3285 5.58657 22.5081 6.35703C22.7356 7.3328 22.4335 8.46034 21.8293 10.7154ZM12.0524 9.80589C12.1596 9.40579 12.5709 9.16835 12.971 9.27556L17.8006 10.5697C18.2007 10.6769 18.4381 11.0881 18.3309 11.4882C18.2237 11.8883 17.8125 12.1257 17.4124 12.0185L12.5827 10.7244C12.1826 10.6172 11.9452 10.206 12.0524 9.80589ZM11.2756 12.7033C11.3828 12.3032 11.794 12.0658 12.1941 12.173L15.0919 12.9495C15.492 13.0567 15.7294 13.4679 15.6222 13.868C15.515 14.2681 15.1038 14.5056 14.7037 14.3984L11.8059 13.6219C11.4058 13.5147 11.1683 13.1034 11.2756 12.7033Z" fill="#FE5704"/>
<path d="M4.8265 35.168C3.5705 35.168 2.5265 34.748 1.6945 33.908C0.8705 33.076 0.4585 32.04 0.4585 30.8C0.4585 29.552 0.8705 28.516 1.6945 27.692C2.5265 26.852 3.5705 26.432 4.8265 26.432C5.5865 26.432 6.2865 26.612 6.9265 26.972C7.5745 27.324 8.0785 27.804 8.4385 28.412L7.0105 29.24C6.8025 28.864 6.5065 28.572 6.1225 28.364C5.7385 28.148 5.3065 28.04 4.8265 28.04C4.0105 28.04 3.3505 28.296 2.8465 28.808C2.3505 29.328 2.1025 29.992 2.1025 30.8C2.1025 31.6 2.3505 32.26 2.8465 32.78C3.3505 33.292 4.0105 33.548 4.8265 33.548C5.3065 33.548 5.7385 33.444 6.1225 33.236C6.5145 33.02 6.8105 32.728 7.0105 32.36L8.4385 33.188C8.0785 33.796 7.5745 34.28 6.9265 34.64C6.2865 34.992 5.5865 35.168 4.8265 35.168ZM9.45578 26.6H12.7918C13.9438 26.6 14.9038 27.004 15.6718 27.812C16.4478 28.612 16.8358 29.608 16.8358 30.8C16.8358 31.992 16.4478 32.988 15.6718 33.788C14.9038 34.596 13.9438 35 12.7918 35H9.45578V26.6ZM11.1118 33.416H12.7918C13.5198 33.416 14.1118 33.176 14.5678 32.696C15.0238 32.2 15.2518 31.568 15.2518 30.8C15.2518 30.024 15.0238 29.396 14.5678 28.916C14.1118 28.428 13.5198 28.184 12.7918 28.184H11.1118V33.416ZM21.9945 35.168C20.7385 35.168 19.6945 34.748 18.8625 33.908C18.0385 33.076 17.6265 32.04 17.6265 30.8C17.6265 29.552 18.0385 28.516 18.8625 27.692C19.6945 26.852 20.7385 26.432 21.9945 26.432C22.7545 26.432 23.4545 26.612 24.0945 26.972C24.7425 27.324 25.2465 27.804 25.6065 28.412L24.1785 29.24C23.9705 28.864 23.6745 28.572 23.2905 28.364C22.9065 28.148 22.4745 28.04 21.9945 28.04C21.1785 28.04 20.5185 28.296 20.0145 28.808C19.5185 29.328 19.2705 29.992 19.2705 30.8C19.2705 31.6 19.5185 32.26 20.0145 32.78C20.5185 33.292 21.1785 33.548 21.9945 33.548C22.4745 33.548 22.9065 33.444 23.2905 33.236C23.6825 33.02 23.9785 32.728 24.1785 32.36L25.6065 33.188C25.2465 33.796 24.7425 34.28 24.0945 34.64C23.4545 34.992 22.7545 35.168 21.9945 35.168Z" fill="#FE5704"/>
</svg>
