<svg width="167" height="167" viewBox="0 0 167 167" fill="none" xmlns="http://www.w3.org/2000/svg">
<g clip-path="url(#clip0_43_21809)">
<path d="M10.1001 0.100006H157.1C162.6 0.100006 167.1 4.60001 167.1 10.1V157.1C167.1 162.6 162.6 167.1 157.1 167.1H10.1001C4.6001 167.1 0.100098 162.6 0.100098 157.1V10.1C0.100098 4.50001 4.6001 0.100006 10.1001 0.100006Z" fill="#FE5704"/>
<mask id="mask0_43_21809" style="mask-type:luminance" maskUnits="userSpaceOnUse" x="0" y="0" width="167" height="167">
<path d="M10 0H157C162.5 0 167 4.5 167 10V157C167 162.5 162.5 167 157 167H10C4.5 167 0 162.5 0 157V10C0 4.5 4.5 0 10 0Z" fill="white"/>
</mask>
<g mask="url(#mask0_43_21809)">
<path d="M149.9 33.3L154.9 53.6L155.9 42.1L150.9 21.9L149.9 33.3Z" fill="url(#paint0_linear_43_21809)"/>
<path d="M109.2 91.1L114.2 111.3L116.6 83.5L111.6 63.2L109.2 91.1Z" fill="url(#paint1_linear_43_21809)"/>
<path d="M71.8 109.5L76.8 129.8L82.8 57.6L77.8 37.3L71.8 109.5Z" fill="url(#paint2_linear_43_21809)"/>
<path d="M143.9 105.5L148.9 125.8L152.6 81.4L147.6 61.2L143.9 105.5Z" fill="url(#paint3_linear_43_21809)"/>
<path d="M67.2001 165.3L72.2001 185.5L75.9001 141.2L70.9001 120.9L67.2001 165.3Z" fill="url(#paint4_linear_43_21809)"/>
<path d="M103.2 163.2L108.2 183.5L110.5 155.6L105.5 135.4L103.2 163.2Z" fill="url(#paint5_linear_43_21809)"/>
<path d="M138.3 172.7L143.3 192.9L144.3 181.5L139.3 161.2L138.3 172.7Z" fill="url(#paint6_linear_43_21809)"/>
<path d="M154.9 53.6L149.9 33.3L77.8 37.3L82.8 57.6L154.9 53.6Z" fill="url(#paint7_linear_43_21809)"/>
<path d="M137.8 82.3L132.8 62L111.6 63.2L116.6 83.5L137.8 82.3Z" fill="url(#paint8_linear_43_21809)"/>
<path d="M147.6 61.2L152.6 81.4L224.7 77.4L219.7 57.2L147.6 61.2Z" fill="url(#paint9_linear_43_21809)"/>
<path d="M94.4 91.9L99.4 112.2L114.2 111.3L109.2 91.1L94.4 91.9Z" fill="url(#paint10_linear_43_21809)"/>
<path d="M238.6 83.8L166.5 87.9L171.5 108.1L243.6 104.1L238.6 83.8Z" fill="url(#paint11_linear_43_21809)"/>
<path d="M133.1 138L148 137.2L205.2 134L200.2 113.7L143 116.9L128.2 117.8L70.9 120.9L75.9 141.2L133.1 138Z" fill="url(#paint12_linear_43_21809)"/>
<path d="M130.8 165.9L166.9 163.9L161.9 143.6L125.8 145.6L130.8 165.9Z" fill="url(#paint13_linear_43_21809)"/>
<path d="M246.4 166.6L231.6 167.5L174.4 170.7L159.6 171.5L164.6 191.8L179.3 190.9L236.6 187.7L251.4 186.9L246.4 166.6Z" fill="url(#paint14_linear_43_21809)"/>
<path d="M105.5 135.4L90.8 136.2L88.4 164.1L67.2 165.3L70.9 120.9L128.2 117.8L143 116.9L200.2 113.7L197.9 141.6L212.7 140.8L215 112.9L216 101.5L201.2 102.3L143.9 105.5L147.6 61.2L219.7 57.2L220.7 45.7L148.6 49.7L133.8 50.6L112.5 51.8L97.7 52.6L96.8 64L94.4 91.9L109.2 91.1L111.6 63.2L132.8 62L129.1 106.3L71.8 109.5L77.8 37.3L149.9 33.3L150.9 21.9L78.8 25.9L64 26.7L63 38.2L57 110.3L56.1 121.8L52.4 166.1L51.4 177.5L66.2 176.7L87.5 175.5L102.3 174.7L138.3 172.7L139.3 161.2L103.2 163.2L105.5 135.4Z" fill="#FE5704"/>
<path d="M244.2 16.7L172.1 20.7L171.2 32.1L243.3 28.1L239.6 72.4L167.5 76.4L166.5 87.9L238.6 83.8L232.6 156L175.3 159.2L176.7 142.8L177.6 131.3L162.8 132.2L126.8 134.2L125.8 145.6L161.9 143.6L160.5 160L159.6 171.5L174.4 170.7L231.6 167.5L246.4 166.6L247.4 155.2L253.4 83L254.4 71.6L258.1 27.3L259 15.8L244.2 16.7Z" fill="#FE5704"/>
</g>
<path d="M16.8 25.7L20.9 30.2L29.1 19.1" stroke="#FCFCFC" stroke-width="4" stroke-miterlimit="10" stroke-linecap="round" stroke-linejoin="round"/>
</g>
<path d="M23.94 144.28C21.8467 144.28 20.1067 143.58 18.72 142.18C17.3467 140.793 16.66 139.067 16.66 137C16.66 134.92 17.3467 133.193 18.72 131.82C20.1067 130.42 21.8467 129.72 23.94 129.72C25.2067 129.72 26.3733 130.02 27.44 130.62C28.52 131.207 29.36 132.007 29.96 133.02L27.58 134.4C27.2333 133.773 26.74 133.287 26.1 132.94C25.46 132.58 24.74 132.4 23.94 132.4C22.58 132.4 21.48 132.827 20.64 133.68C19.8133 134.547 19.4 135.653 19.4 137C19.4 138.333 19.8133 139.433 20.64 140.3C21.48 141.153 22.58 141.58 23.94 141.58C24.74 141.58 25.46 141.407 26.1 141.06C26.7533 140.7 27.2467 140.213 27.58 139.6L29.96 140.98C29.36 141.993 28.52 142.8 27.44 143.4C26.3733 143.987 25.2067 144.28 23.94 144.28ZM37.2517 133.72C38.3584 133.72 39.2584 134.087 39.9517 134.82C40.6717 135.567 41.0317 136.58 41.0317 137.86V144H38.4517V138.18C38.4517 137.527 38.2717 137.02 37.9117 136.66C37.5651 136.3 37.0851 136.12 36.4717 136.12C35.7917 136.12 35.2517 136.333 34.8517 136.76C34.4651 137.173 34.2717 137.787 34.2717 138.6V144H31.6917V130H34.2717V135.12C34.8851 134.187 35.8784 133.72 37.2517 133.72ZM52.9547 140.06H45.4147C45.748 141.313 46.688 141.94 48.2347 141.94C49.2214 141.94 49.968 141.607 50.4747 140.94L52.5547 142.14C51.568 143.567 50.1147 144.28 48.1947 144.28C46.5414 144.28 45.2147 143.78 44.2147 142.78C43.2147 141.78 42.7147 140.52 42.7147 139C42.7147 137.507 43.208 136.253 44.1947 135.24C45.168 134.227 46.4347 133.72 47.9947 133.72C49.4747 133.72 50.6814 134.227 51.6147 135.24C52.5747 136.253 53.0547 137.507 53.0547 139C53.0547 139.28 53.0214 139.633 52.9547 140.06ZM45.3747 138.06H50.4747C50.328 137.407 50.028 136.907 49.5747 136.56C49.1347 136.213 48.608 136.04 47.9947 136.04C47.3014 136.04 46.728 136.22 46.2747 136.58C45.8214 136.927 45.5214 137.42 45.3747 138.06ZM59.5377 144.28C58.031 144.28 56.771 143.773 55.7577 142.76C54.7577 141.747 54.2577 140.493 54.2577 139C54.2577 137.507 54.7577 136.253 55.7577 135.24C56.771 134.227 58.031 133.72 59.5377 133.72C60.511 133.72 61.3977 133.953 62.1977 134.42C62.9977 134.887 63.6043 135.513 64.0177 136.3L61.7977 137.6C61.5977 137.187 61.291 136.86 60.8777 136.62C60.4777 136.38 60.0243 136.26 59.5177 136.26C58.7443 136.26 58.1043 136.52 57.5977 137.04C57.091 137.547 56.8377 138.2 56.8377 139C56.8377 139.773 57.091 140.427 57.5977 140.96C58.1043 141.467 58.7443 141.72 59.5177 141.72C60.0377 141.72 60.4977 141.607 60.8977 141.38C61.311 141.14 61.6177 140.813 61.8177 140.4L64.0577 141.68C63.6177 142.48 62.991 143.113 62.1777 143.58C61.3777 144.047 60.4977 144.28 59.5377 144.28ZM70.5022 138.94L74.6422 144H71.6422L68.0022 139.46V144H65.4222V130H68.0022V138.4L71.4422 134H74.5222L70.5022 138.94ZM82.925 139.2H75.425V136.72H82.925V139.2ZM90.7427 144.28C89.1827 144.28 87.9027 143.84 86.9027 142.96C85.9027 142.08 85.4027 140.9 85.4027 139.42V130H88.1427V139.2C88.1427 139.947 88.356 140.533 88.7827 140.96C89.2227 141.373 89.876 141.58 90.7427 141.58C91.6093 141.58 92.256 141.373 92.6827 140.96C93.1227 140.533 93.3427 139.947 93.3427 139.2V130H96.1027V139.42C96.1027 140.9 95.6027 142.08 94.6027 142.96C93.6027 143.84 92.316 144.28 90.7427 144.28ZM104.289 133.72C105.636 133.72 106.782 134.233 107.729 135.26C108.689 136.287 109.169 137.533 109.169 139C109.169 140.493 108.689 141.747 107.729 142.76C106.796 143.773 105.649 144.28 104.289 144.28C102.889 144.28 101.809 143.793 101.049 142.82V148H98.4691V134H101.049V135.18C101.809 134.207 102.889 133.72 104.289 133.72ZM101.829 141.04C102.349 141.56 103.009 141.82 103.809 141.82C104.609 141.82 105.269 141.56 105.789 141.04C106.322 140.507 106.589 139.827 106.589 139C106.589 138.173 106.322 137.5 105.789 136.98C105.269 136.447 104.609 136.18 103.809 136.18C103.009 136.18 102.349 136.447 101.829 136.98C101.309 137.5 101.049 138.173 101.049 139C101.049 139.827 101.309 140.507 101.829 141.04Z" fill="white"/>
<path d="M21.47 116H22V123H21.47V119.65H17.4V123H16.87V116H17.4V119.15H21.47V116ZM25.9252 123.11C25.1919 123.11 24.5686 122.86 24.0552 122.36C23.5486 121.853 23.2952 121.233 23.2952 120.5C23.2952 119.767 23.5486 119.15 24.0552 118.65C24.5686 118.143 25.1919 117.89 25.9252 117.89C26.6519 117.89 27.2686 118.143 27.7752 118.65C28.2886 119.15 28.5452 119.767 28.5452 120.5C28.5452 121.233 28.2886 121.853 27.7752 122.36C27.2686 122.86 26.6519 123.11 25.9252 123.11ZM24.4152 122.01C24.8286 122.423 25.3319 122.63 25.9252 122.63C26.5186 122.63 27.0186 122.423 27.4252 122.01C27.8319 121.597 28.0352 121.093 28.0352 120.5C28.0352 119.907 27.8319 119.403 27.4252 118.99C27.0186 118.577 26.5186 118.37 25.9252 118.37C25.3319 118.37 24.8286 118.577 24.4152 118.99C24.0086 119.403 23.8052 119.907 23.8052 120.5C23.8052 121.093 24.0086 121.597 24.4152 122.01ZM35.0885 117.89C35.6352 117.89 36.0752 118.06 36.4085 118.4C36.7418 118.74 36.9085 119.217 36.9085 119.83V123H36.4085V119.83C36.4085 119.363 36.2852 119.003 36.0385 118.75C35.7985 118.497 35.4785 118.37 35.0785 118.37C34.6318 118.37 34.2685 118.523 33.9885 118.83C33.7152 119.137 33.5785 119.597 33.5785 120.21V123H33.0785V119.83C33.0785 119.363 32.9618 119.003 32.7285 118.75C32.5018 118.497 32.1918 118.37 31.7985 118.37C31.3585 118.37 30.9885 118.527 30.6885 118.84C30.3952 119.147 30.2485 119.603 30.2485 120.21V123H29.7485V118H30.2485V118.86C30.5952 118.213 31.1318 117.89 31.8585 117.89C32.2252 117.89 32.5452 117.98 32.8185 118.16C33.0918 118.333 33.2918 118.583 33.4185 118.91C33.5918 118.57 33.8252 118.317 34.1185 118.15C34.4185 117.977 34.7418 117.89 35.0885 117.89ZM40.6127 123.11C39.8794 123.11 39.2561 122.86 38.7427 122.36C38.2361 121.853 37.9827 121.233 37.9827 120.5C37.9827 119.767 38.2361 119.15 38.7427 118.65C39.2561 118.143 39.8794 117.89 40.6127 117.89C41.3394 117.89 41.9561 118.143 42.4627 118.65C42.9761 119.15 43.2327 119.767 43.2327 120.5C43.2327 121.233 42.9761 121.853 42.4627 122.36C41.9561 122.86 41.3394 123.11 40.6127 123.11ZM39.1027 122.01C39.5161 122.423 40.0194 122.63 40.6127 122.63C41.2061 122.63 41.7061 122.423 42.1127 122.01C42.5194 121.597 42.7227 121.093 42.7227 120.5C42.7227 119.907 42.5194 119.403 42.1127 118.99C41.7061 118.577 41.2061 118.37 40.6127 118.37C40.0194 118.37 39.5161 118.577 39.1027 118.99C38.6961 119.403 38.4927 119.907 38.4927 120.5C38.4927 121.093 38.6961 121.597 39.1027 122.01ZM44.436 123V115.7H44.936V123H44.436ZM48.767 123.11C48.0337 123.11 47.4104 122.86 46.897 122.36C46.3904 121.853 46.137 121.233 46.137 120.5C46.137 119.767 46.3904 119.15 46.897 118.65C47.4104 118.143 48.0337 117.89 48.767 117.89C49.4937 117.89 50.1104 118.143 50.617 118.65C51.1304 119.15 51.387 119.767 51.387 120.5C51.387 121.233 51.1304 121.853 50.617 122.36C50.1104 122.86 49.4937 123.11 48.767 123.11ZM47.257 122.01C47.6704 122.423 48.1737 122.63 48.767 122.63C49.3604 122.63 49.8604 122.423 50.267 122.01C50.6737 121.597 50.877 121.093 50.877 120.5C50.877 119.907 50.6737 119.403 50.267 118.99C49.8604 118.577 49.3604 118.37 48.767 118.37C48.1737 118.37 47.6704 118.577 47.257 118.99C46.8504 119.403 46.647 119.907 46.647 120.5C46.647 121.093 46.8504 121.597 47.257 122.01ZM57.0303 118H57.5303V122.76C57.5303 123.487 57.2936 124.06 56.8203 124.48C56.347 124.9 55.7536 125.11 55.0403 125.11C54.467 125.11 53.977 125.003 53.5703 124.79C53.1636 124.577 52.867 124.283 52.6803 123.91L53.1203 123.66C53.4403 124.307 54.0803 124.63 55.0403 124.63C55.6603 124.63 56.147 124.46 56.5003 124.12C56.8536 123.787 57.0303 123.333 57.0303 122.76V121.84C56.8236 122.233 56.5303 122.543 56.1503 122.77C55.777 122.997 55.3536 123.11 54.8803 123.11C54.1603 123.11 53.547 122.86 53.0403 122.36C52.5403 121.853 52.2903 121.233 52.2903 120.5C52.2903 119.767 52.5403 119.15 53.0403 118.65C53.547 118.143 54.1603 117.89 54.8803 117.89C55.3536 117.89 55.777 118.003 56.1503 118.23C56.5303 118.457 56.8236 118.767 57.0303 119.16V118ZM53.4003 122.01C53.8136 122.423 54.317 122.63 54.9103 122.63C55.5036 122.63 56.0036 122.423 56.4103 122.01C56.8236 121.597 57.0303 121.093 57.0303 120.5C57.0303 119.907 56.8236 119.403 56.4103 118.99C56.0036 118.577 55.5036 118.37 54.9103 118.37C54.317 118.37 53.8136 118.577 53.4003 118.99C52.9936 119.403 52.7903 119.907 52.7903 120.5C52.7903 121.093 52.9936 121.597 53.4003 122.01ZM63.4747 118H63.9847V123H63.4747V121.87C63.2614 122.257 62.968 122.56 62.5947 122.78C62.2214 123 61.798 123.11 61.3247 123.11C60.6114 123.11 60.0014 122.86 59.4947 122.36C58.988 121.853 58.7347 121.233 58.7347 120.5C58.7347 119.767 58.988 119.15 59.4947 118.65C60.0014 118.143 60.6114 117.89 61.3247 117.89C61.798 117.89 62.2214 118 62.5947 118.22C62.968 118.44 63.2614 118.743 63.4747 119.13V118ZM59.8547 122.01C60.268 122.423 60.7714 122.63 61.3647 122.63C61.958 122.63 62.458 122.423 62.8647 122.01C63.2714 121.597 63.4747 121.093 63.4747 120.5C63.4747 119.907 63.2714 119.403 62.8647 118.99C62.458 118.577 61.958 118.37 61.3647 118.37C60.7714 118.37 60.268 118.577 59.8547 118.99C59.448 119.403 59.2447 119.907 59.2447 120.5C59.2447 121.093 59.448 121.597 59.8547 122.01ZM68.08 118.49H66.59V121.74C66.59 122.027 66.6433 122.233 66.75 122.36C66.8567 122.487 67.02 122.56 67.24 122.58C67.46 122.593 67.74 122.583 68.08 122.55V123C67.4067 123.1 66.9033 123.053 66.57 122.86C66.2433 122.667 66.08 122.293 66.08 121.74V118.49H64.98V118H66.08V116.75L66.59 116.6V118H68.08V118.49ZM69.8098 116.68C69.7298 116.753 69.6364 116.79 69.5298 116.79C69.4231 116.79 69.3298 116.753 69.2498 116.68C69.1698 116.6 69.1298 116.503 69.1298 116.39C69.1298 116.283 69.1698 116.193 69.2498 116.12C69.3298 116.04 69.4231 116 69.5298 116C69.6364 116 69.7298 116.04 69.8098 116.12C69.8898 116.193 69.9298 116.283 69.9298 116.39C69.9298 116.503 69.8898 116.6 69.8098 116.68ZM69.2798 123V118H69.7798V123H69.2798ZM73.6108 123.11C72.8774 123.11 72.2541 122.86 71.7408 122.36C71.2341 121.853 70.9808 121.233 70.9808 120.5C70.9808 119.767 71.2341 119.15 71.7408 118.65C72.2541 118.143 72.8774 117.89 73.6108 117.89C74.3374 117.89 74.9541 118.143 75.4608 118.65C75.9741 119.15 76.2308 119.767 76.2308 120.5C76.2308 121.233 75.9741 121.853 75.4608 122.36C74.9541 122.86 74.3374 123.11 73.6108 123.11ZM72.1008 122.01C72.5141 122.423 73.0174 122.63 73.6108 122.63C74.2041 122.63 74.7041 122.423 75.1108 122.01C75.5174 121.597 75.7208 121.093 75.7208 120.5C75.7208 119.907 75.5174 119.403 75.1108 118.99C74.7041 118.577 74.2041 118.37 73.6108 118.37C73.0174 118.37 72.5141 118.577 72.1008 118.99C71.6941 119.403 71.4908 119.907 71.4908 120.5C71.4908 121.093 71.6941 121.597 72.1008 122.01ZM79.7241 117.89C80.3174 117.89 80.7874 118.073 81.1341 118.44C81.4874 118.8 81.6641 119.283 81.6641 119.89V123H81.1541V119.89C81.1541 119.423 81.0241 119.053 80.7641 118.78C80.5107 118.507 80.1507 118.37 79.6841 118.37C79.1707 118.37 78.7507 118.54 78.4241 118.88C78.0974 119.22 77.9341 119.713 77.9341 120.36V123H77.4341V118H77.9341V118.95C78.2941 118.243 78.8907 117.89 79.7241 117.89Z" fill="white"/>
<rect x="108" y="14" width="44" height="44" rx="11" fill="white"/>
<path d="M125 41.0001L135 31.0001" stroke="black" stroke-width="2" stroke-linecap="round" stroke-linejoin="round"/>
<path d="M125 31.0001H135V41.0001" stroke="black" stroke-width="2" stroke-linecap="round" stroke-linejoin="round"/>
<defs>
<linearGradient id="paint0_linear_43_21809" x1="153.346" y1="33.103" x2="137.785" y2="197.611" gradientUnits="userSpaceOnUse">
<stop stop-color="#FE8245"/>
<stop offset="1" stop-color="#FE5704"/>
</linearGradient>
<linearGradient id="paint1_linear_43_21809" x1="118.332" y1="29.7908" x2="102.77" y2="194.299" gradientUnits="userSpaceOnUse">
<stop stop-color="#FE8245"/>
<stop offset="1" stop-color="#FE5704"/>
</linearGradient>
<linearGradient id="paint2_linear_43_21809" x1="82.7413" y1="26.4242" x2="67.1797" y2="190.933" gradientUnits="userSpaceOnUse">
<stop stop-color="#FE8245"/>
<stop offset="1" stop-color="#FE5704"/>
</linearGradient>
<linearGradient id="paint3_linear_43_21809" x1="153.965" y1="33.1616" x2="138.404" y2="197.67" gradientUnits="userSpaceOnUse">
<stop stop-color="#FE8245"/>
<stop offset="1" stop-color="#FE5704"/>
</linearGradient>
<linearGradient id="paint4_linear_43_21809" x1="83.5153" y1="26.4974" x2="67.9537" y2="191.006" gradientUnits="userSpaceOnUse">
<stop stop-color="#FE8245"/>
<stop offset="1" stop-color="#FE5704"/>
</linearGradient>
<linearGradient id="paint5_linear_43_21809" x1="119.133" y1="29.8666" x2="103.572" y2="194.375" gradientUnits="userSpaceOnUse">
<stop stop-color="#FE8245"/>
<stop offset="1" stop-color="#FE5704"/>
</linearGradient>
<linearGradient id="paint6_linear_43_21809" x1="154.894" y1="33.2494" x2="139.333" y2="197.758" gradientUnits="userSpaceOnUse">
<stop stop-color="#FE8245"/>
<stop offset="1" stop-color="#FE5704"/>
</linearGradient>
<linearGradient id="paint7_linear_43_21809" x1="70.4081" y1="46.9963" x2="243.364" y2="41.2163" gradientUnits="userSpaceOnUse">
<stop stop-color="#FE5704"/>
<stop offset="1"/>
</linearGradient>
<linearGradient id="paint8_linear_43_21809" x1="71.3278" y1="74.5165" x2="244.284" y2="68.7365" gradientUnits="userSpaceOnUse">
<stop stop-color="#FE5704"/>
<stop offset="1"/>
</linearGradient>
<linearGradient id="paint9_linear_43_21809" x1="71.2819" y1="73.1412" x2="244.238" y2="67.3612" gradientUnits="userSpaceOnUse">
<stop stop-color="#FE5704"/>
<stop offset="1"/>
</linearGradient>
<linearGradient id="paint10_linear_43_21809" x1="72.2693" y1="102.689" x2="245.225" y2="96.9091" gradientUnits="userSpaceOnUse">
<stop stop-color="#FE5704"/>
<stop offset="1"/>
</linearGradient>
<linearGradient id="paint11_linear_43_21809" x1="72.194" y1="100.435" x2="245.15" y2="94.6554" gradientUnits="userSpaceOnUse">
<stop stop-color="#FE5704"/>
<stop offset="1"/>
</linearGradient>
<linearGradient id="paint12_linear_43_21809" x1="73.17" y1="129.64" x2="246.126" y2="123.86" gradientUnits="userSpaceOnUse">
<stop stop-color="#FE5704"/>
<stop offset="1"/>
</linearGradient>
<linearGradient id="paint13_linear_43_21809" x1="74.0902" y1="157.172" x2="247.046" y2="151.392" gradientUnits="userSpaceOnUse">
<stop stop-color="#FE5704"/>
<stop offset="1"/>
</linearGradient>
<linearGradient id="paint14_linear_43_21809" x1="74.9718" y1="183.555" x2="247.928" y2="177.775" gradientUnits="userSpaceOnUse">
<stop stop-color="#FE5704"/>
<stop offset="1"/>
</linearGradient>
<clipPath id="clip0_43_21809">
<rect width="167" height="167" fill="white"/>
</clipPath>
</defs>
</svg>
