<svg width="167" height="167" viewBox="0 0 167 167" fill="none" xmlns="http://www.w3.org/2000/svg">
<g clip-path="url(#clip0_43_22032)">
<path d="M10.1001 0.0999756H157.1C162.6 0.0999756 167.1 4.59998 167.1 10.1V157.1C167.1 162.6 162.6 167.1 157.1 167.1H10.1001C4.6001 167.1 0.100098 162.6 0.100098 157.1V10.1C0.100098 4.49998 4.6001 0.0999756 10.1001 0.0999756Z" fill="#FE5704"/>
<mask id="mask0_43_22032" style="mask-type:luminance" maskUnits="userSpaceOnUse" x="0" y="0" width="167" height="167">
<path d="M10 0H157C162.5 0 167 4.5 167 10V157C167 162.5 162.5 167 157 167H10C4.5 167 0 162.5 0 157V10C0 4.5 4.5 0 10 0Z" fill="white"/>
</mask>
<g mask="url(#mask0_43_22032)">
<path d="M149.9 33.3L154.9 53.6L155.9 42.1L150.9 21.9L149.9 33.3Z" fill="url(#paint0_linear_43_22032)"/>
<path d="M109.2 91.0999L114.2 111.3L116.6 83.5L111.6 63.2L109.2 91.0999Z" fill="url(#paint1_linear_43_22032)"/>
<path d="M71.8 109.5L76.8 129.8L82.8 57.6L77.8 37.3L71.8 109.5Z" fill="url(#paint2_linear_43_22032)"/>
<path d="M143.9 105.5L148.9 125.8L152.6 81.4L147.6 61.2L143.9 105.5Z" fill="url(#paint3_linear_43_22032)"/>
<path d="M67.2001 165.3L72.2001 185.5L75.9001 141.2L70.9001 120.9L67.2001 165.3Z" fill="url(#paint4_linear_43_22032)"/>
<path d="M103.2 163.2L108.2 183.5L110.5 155.6L105.5 135.4L103.2 163.2Z" fill="url(#paint5_linear_43_22032)"/>
<path d="M138.3 172.7L143.3 192.9L144.3 181.5L139.3 161.2L138.3 172.7Z" fill="url(#paint6_linear_43_22032)"/>
<path d="M154.9 53.6L149.9 33.3L77.8 37.3L82.8 57.6L154.9 53.6Z" fill="url(#paint7_linear_43_22032)"/>
<path d="M137.8 82.3L132.8 62L111.6 63.2L116.6 83.5L137.8 82.3Z" fill="url(#paint8_linear_43_22032)"/>
<path d="M147.6 61.2L152.6 81.4L224.7 77.4L219.7 57.2L147.6 61.2Z" fill="url(#paint9_linear_43_22032)"/>
<path d="M94.4 91.9L99.4 112.2L114.2 111.3L109.2 91.1L94.4 91.9Z" fill="url(#paint10_linear_43_22032)"/>
<path d="M238.6 83.8L166.5 87.9L171.5 108.1L243.6 104.1L238.6 83.8Z" fill="url(#paint11_linear_43_22032)"/>
<path d="M133.1 138L148 137.2L205.2 134L200.2 113.7L143 116.9L128.2 117.8L70.9 120.9L75.9 141.2L133.1 138Z" fill="url(#paint12_linear_43_22032)"/>
<path d="M130.8 165.9L166.9 163.9L161.9 143.6L125.8 145.6L130.8 165.9Z" fill="url(#paint13_linear_43_22032)"/>
<path d="M246.4 166.6L231.6 167.5L174.4 170.7L159.6 171.5L164.6 191.8L179.3 190.9L236.6 187.7L251.4 186.9L246.4 166.6Z" fill="url(#paint14_linear_43_22032)"/>
<path d="M105.5 135.4L90.8 136.2L88.4 164.1L67.2 165.3L70.9 120.9L128.2 117.8L143 116.9L200.2 113.7L197.9 141.6L212.7 140.8L215 112.9L216 101.5L201.2 102.3L143.9 105.5L147.6 61.2L219.7 57.2L220.7 45.7L148.6 49.7L133.8 50.6L112.5 51.8L97.7 52.6L96.8 64L94.4 91.9L109.2 91.1L111.6 63.2L132.8 62L129.1 106.3L71.8 109.5L77.8 37.3L149.9 33.3L150.9 21.9L78.8 25.9L64 26.7L63 38.2L57 110.3L56.1 121.8L52.4 166.1L51.4 177.5L66.2 176.7L87.5 175.5L102.3 174.7L138.3 172.7L139.3 161.2L103.2 163.2L105.5 135.4Z" fill="#FE5704"/>
<path d="M244.2 16.7L172.1 20.7L171.2 32.1L243.3 28.1L239.6 72.4L167.5 76.4L166.5 87.9L238.6 83.8L232.6 156L175.3 159.2L176.7 142.8L177.6 131.3L162.8 132.2L126.8 134.2L125.8 145.6L161.9 143.6L160.5 160L159.6 171.5L174.4 170.7L231.6 167.5L246.4 166.6L247.4 155.2L253.4 83L254.4 71.6L258.1 27.3L259 15.8L244.2 16.7Z" fill="#FE5704"/>
</g>
<path d="M19.9999 27.9C18.6999 27.9 17.5999 26.9 17.3999 25.6L16.1999 16.8C16.0999 15.8 16.7999 14.9 17.8999 14.9C18.7999 14.9 19.4999 15.6 19.5999 16.4L20.2999 24L23.8999 15.9C24.1999 15.3 24.7999 14.9 25.3999 14.9C26.5999 14.9 27.3999 16.2 26.8999 17.3L22.4999 26.4C21.8999 27.3 20.9999 27.9 19.9999 27.9Z" fill="#FCFCFC"/>
<path d="M28.0999 34.4001C26.6999 34.4001 25.5999 34.1 24.7999 33.5C24.5999 33.4 24.3999 33.2 24.1999 33C23.3999 32.2 23.5999 30.9 24.5999 30.4L24.8999 30.3C25.4999 30 26.1999 30.2001 26.6999 30.7001C27.0999 31.1 27.6999 31.3 28.4999 31.3C29.4999 31.3 30.0999 31 30.1999 30.4C30.2999 30 29.9999 29.7 29.2999 29.4C29.2999 29.4 28.7999 29.2 27.8999 28.9C26.6999 28.5 25.8999 28 25.2999 27.3C24.6999 26.6 24.4999 25.7 24.6999 24.6C24.8999 23.4 25.4999 22.5 26.3999 21.8C27.2999 21.1 28.3999 20.8 29.6999 20.8C30.7999 20.8 31.6999 21.1 32.4999 21.6C32.6999 21.7 32.8999 21.9 33.0999 22.1C33.8999 22.8001 33.6999 24.1 32.6999 24.6L32.5999 24.7001C31.9999 25.0001 31.2999 24.9 30.6999 24.4C30.3999 24.2 29.9999 24 29.4999 24C28.6999 24 28.2999 24.3 28.1999 24.8C28.0999 25.1 28.1999 25.3 28.4999 25.6C28.7999 25.8 29.2999 26.1 30.1999 26.4C30.7999 26.6 31.2999 26.8 31.5999 27C31.8999 27.2 32.2999 27.4001 32.6999 27.7001C33.4999 28.3001 33.7999 29.3001 33.4999 30.7001C33.2999 31.9001 32.6999 32.8 31.7999 33.5C30.7999 34.1 29.5999 34.4001 28.0999 34.4001Z" fill="#FCFCFC"/>
</g>
<path d="M24.02 137.48H31.04V138.56C31.04 140.56 30.4 142.18 29.12 143.42C27.84 144.66 26.1867 145.28 24.16 145.28C22 145.28 20.2067 144.58 18.78 143.18C17.3667 141.767 16.66 140.047 16.66 138.02C16.66 135.98 17.36 134.253 18.76 132.84C20.1733 131.427 21.92 130.72 24 130.72C25.2933 130.72 26.48 131.013 27.56 131.6C28.64 132.187 29.4867 132.98 30.1 133.98L27.74 135.34C27.4067 134.767 26.9 134.3 26.22 133.94C25.54 133.58 24.7933 133.4 23.98 133.4C22.6333 133.4 21.5333 133.84 20.68 134.72C19.8267 135.573 19.4 136.673 19.4 138.02C19.4 139.34 19.8333 140.433 20.7 141.3C21.5667 142.153 22.7267 142.58 24.18 142.58C25.2333 142.58 26.1133 142.347 26.82 141.88C27.5267 141.413 28.0067 140.76 28.26 139.92H24.02V137.48ZM35.4631 135V136.72C35.6898 136.093 36.0765 135.62 36.6231 135.3C37.1698 134.967 37.7965 134.8 38.5031 134.8V137.68C37.7165 137.573 37.0098 137.733 36.3831 138.16C35.7698 138.573 35.4631 139.26 35.4631 140.22V145H32.8831V135H35.4631ZM47.2409 136.18V135H49.8209V145H47.2409V143.82C46.4676 144.793 45.3809 145.28 43.9809 145.28C42.6476 145.28 41.5009 144.773 40.5409 143.76C39.5943 142.733 39.1209 141.48 39.1209 140C39.1209 138.533 39.5943 137.287 40.5409 136.26C41.5009 135.233 42.6476 134.72 43.9809 134.72C45.3809 134.72 46.4676 135.207 47.2409 136.18ZM42.4809 142.04C43.0009 142.56 43.6609 142.82 44.4609 142.82C45.2609 142.82 45.9209 142.56 46.4409 142.04C46.9743 141.507 47.2409 140.827 47.2409 140C47.2409 139.173 46.9743 138.5 46.4409 137.98C45.9209 137.447 45.2609 137.18 44.4609 137.18C43.6609 137.18 43.0009 137.447 42.4809 137.98C41.9609 138.5 41.7009 139.173 41.7009 140C41.7009 140.827 41.9609 141.507 42.4809 142.04ZM57.7205 134.72C58.8271 134.72 59.7271 135.087 60.4205 135.82C61.1405 136.567 61.5005 137.58 61.5005 138.86V145H58.9205V139.18C58.9205 138.527 58.7405 138.02 58.3805 137.66C58.0338 137.3 57.5538 137.12 56.9405 137.12C56.2605 137.12 55.7205 137.333 55.3205 137.76C54.9338 138.173 54.7405 138.787 54.7405 139.6V145H52.1605V135H54.7405V136.12C55.3538 135.187 56.3471 134.72 57.7205 134.72ZM71.2834 136.18V131H73.8634V145H71.2834V143.82C70.5234 144.793 69.4434 145.28 68.0434 145.28C66.6968 145.28 65.5434 144.773 64.5834 143.76C63.6368 142.733 63.1634 141.48 63.1634 140C63.1634 138.533 63.6368 137.287 64.5834 136.26C65.5434 135.233 66.6968 134.72 68.0434 134.72C69.4434 134.72 70.5234 135.207 71.2834 136.18ZM66.5234 142.04C67.0701 142.56 67.7368 142.82 68.5234 142.82C69.3234 142.82 69.9834 142.56 70.5034 142.04C71.0234 141.507 71.2834 140.827 71.2834 140C71.2834 139.173 71.0234 138.5 70.5034 137.98C69.9834 137.447 69.3234 137.18 68.5234 137.18C67.7234 137.18 67.0568 137.447 66.5234 137.98C66.0034 138.5 65.7434 139.173 65.7434 140C65.7434 140.827 66.0034 141.507 66.5234 142.04ZM89.703 131V133.64H84.103V136.96H89.543V139.6H84.103V145H81.343V131H89.703ZM92.8741 133.8C92.4474 133.8 92.0741 133.647 91.7541 133.34C91.4474 133.02 91.2941 132.647 91.2941 132.22C91.2941 131.793 91.4474 131.42 91.7541 131.1C92.0741 130.78 92.4474 130.62 92.8741 130.62C93.3141 130.62 93.6874 130.78 93.9941 131.1C94.3141 131.42 94.4741 131.793 94.4741 132.22C94.4741 132.647 94.3141 133.02 93.9941 133.34C93.6874 133.647 93.3141 133.8 92.8741 133.8ZM94.1741 145H91.5941V135H94.1741V145ZM102.095 134.72C103.202 134.72 104.102 135.087 104.795 135.82C105.515 136.567 105.875 137.58 105.875 138.86V145H103.295V139.18C103.295 138.527 103.115 138.02 102.755 137.66C102.409 137.3 101.929 137.12 101.315 137.12C100.635 137.12 100.095 137.333 99.6955 137.76C99.3088 138.173 99.1155 138.787 99.1155 139.6V145H96.5355V135H99.1155V136.12C99.7288 135.187 100.722 134.72 102.095 134.72ZM115.678 136.18V135H118.258V145H115.678V143.82C114.905 144.793 113.818 145.28 112.418 145.28C111.085 145.28 109.938 144.773 108.978 143.76C108.032 142.733 107.558 141.48 107.558 140C107.558 138.533 108.032 137.287 108.978 136.26C109.938 135.233 111.085 134.72 112.418 134.72C113.818 134.72 114.905 135.207 115.678 136.18ZM110.918 142.04C111.438 142.56 112.098 142.82 112.898 142.82C113.698 142.82 114.358 142.56 114.878 142.04C115.412 141.507 115.678 140.827 115.678 140C115.678 139.173 115.412 138.5 114.878 137.98C114.358 137.447 113.698 137.18 112.898 137.18C112.098 137.18 111.438 137.447 110.918 137.98C110.398 138.5 110.138 139.173 110.138 140C110.138 140.827 110.398 141.507 110.918 142.04ZM123.178 145H120.598V130.4H123.178V145ZM127.841 137.84C127.841 138.267 128.448 138.633 129.661 138.94C130.088 139.033 130.475 139.147 130.821 139.28C131.168 139.4 131.515 139.58 131.861 139.82C132.221 140.047 132.501 140.353 132.701 140.74C132.901 141.127 133.001 141.573 133.001 142.08C133.001 143.107 132.615 143.9 131.841 144.46C131.068 145.007 130.115 145.28 128.981 145.28C126.928 145.28 125.528 144.487 124.781 142.9L127.021 141.64C127.328 142.507 127.981 142.94 128.981 142.94C129.901 142.94 130.361 142.653 130.361 142.08C130.361 141.653 129.755 141.287 128.541 140.98C128.088 140.86 127.701 140.74 127.381 140.62C127.061 140.5 126.715 140.327 126.341 140.1C125.968 139.86 125.681 139.56 125.481 139.2C125.295 138.827 125.201 138.393 125.201 137.9C125.201 136.913 125.561 136.14 126.281 135.58C127.015 135.007 127.921 134.72 129.001 134.72C129.815 134.72 130.555 134.907 131.221 135.28C131.888 135.64 132.415 136.16 132.801 136.84L130.601 138.04C130.281 137.36 129.748 137.02 129.001 137.02C128.668 137.02 128.388 137.1 128.161 137.26C127.948 137.407 127.841 137.6 127.841 137.84Z" fill="white"/>
<path d="M19.25 117C19.8767 117 20.3967 117.207 20.81 117.62C21.2233 118.033 21.43 118.55 21.43 119.17C21.43 119.79 21.2233 120.307 20.81 120.72C20.3967 121.127 19.8767 121.33 19.25 121.33H17.4V124H16.87V117H19.25ZM19.25 120.83C19.73 120.83 20.1233 120.673 20.43 120.36C20.7433 120.047 20.9 119.65 20.9 119.17C20.9 118.683 20.7433 118.283 20.43 117.97C20.1233 117.657 19.73 117.5 19.25 117.5H17.4V120.83H19.25ZM24.9291 118.89C25.5225 118.89 25.9925 119.073 26.3391 119.44C26.6925 119.8 26.8691 120.283 26.8691 120.89V124H26.3591V120.89C26.3591 120.423 26.2291 120.053 25.9691 119.78C25.7158 119.507 25.3558 119.37 24.8891 119.37C24.3758 119.37 23.9558 119.54 23.6291 119.88C23.3025 120.22 23.1391 120.713 23.1391 121.36V124H22.6391V117H23.1391V119.95C23.4991 119.243 24.0958 118.89 24.9291 118.89ZM32.6837 119H33.1937V124H32.6837V122.87C32.4703 123.257 32.177 123.56 31.8037 123.78C31.4303 124 31.007 124.11 30.5337 124.11C29.8203 124.11 29.2103 123.86 28.7037 123.36C28.197 122.853 27.9437 122.233 27.9437 121.5C27.9437 120.767 28.197 120.15 28.7037 119.65C29.2103 119.143 29.8203 118.89 30.5337 118.89C31.007 118.89 31.4303 119 31.8037 119.22C32.177 119.44 32.4703 119.743 32.6837 120.13V119ZM29.0637 123.01C29.477 123.423 29.9803 123.63 30.5737 123.63C31.167 123.63 31.667 123.423 32.0737 123.01C32.4803 122.597 32.6837 122.093 32.6837 121.5C32.6837 120.907 32.4803 120.403 32.0737 119.99C31.667 119.577 31.167 119.37 30.5737 119.37C29.9803 119.37 29.477 119.577 29.0637 119.99C28.657 120.403 28.4537 120.907 28.4537 121.5C28.4537 122.093 28.657 122.597 29.0637 123.01ZM35.069 120.31C35.069 120.557 35.1723 120.75 35.379 120.89C35.5857 121.03 35.839 121.137 36.139 121.21C36.439 121.277 36.7357 121.353 37.029 121.44C37.329 121.527 37.5823 121.673 37.789 121.88C37.9957 122.08 38.099 122.35 38.099 122.69C38.099 123.103 37.9323 123.443 37.599 123.71C37.2723 123.977 36.8423 124.11 36.309 124.11C35.829 124.11 35.4223 124.01 35.089 123.81C34.7623 123.603 34.5357 123.333 34.409 123L34.839 122.75C34.9323 123.023 35.1057 123.24 35.359 123.4C35.619 123.553 35.9357 123.63 36.309 123.63C36.6823 123.63 36.989 123.55 37.229 123.39C37.4757 123.223 37.599 122.99 37.599 122.69C37.599 122.443 37.4957 122.247 37.289 122.1C37.0823 121.953 36.829 121.847 36.529 121.78C36.229 121.707 35.929 121.627 35.629 121.54C35.3357 121.453 35.0857 121.31 34.879 121.11C34.6723 120.91 34.569 120.643 34.569 120.31C34.569 119.91 34.7257 119.573 35.039 119.3C35.359 119.027 35.769 118.89 36.269 118.89C36.669 118.89 37.0157 118.98 37.309 119.16C37.609 119.34 37.829 119.583 37.969 119.89L37.549 120.13C37.449 119.883 37.2823 119.697 37.049 119.57C36.8157 119.437 36.5557 119.37 36.269 119.37C35.929 119.37 35.6423 119.457 35.409 119.63C35.1823 119.797 35.069 120.023 35.069 120.31ZM41.4126 118.89C42.1459 118.89 42.7392 119.15 43.1926 119.67C43.6526 120.19 43.8826 120.807 43.8826 121.52C43.8826 121.547 43.8792 121.587 43.8726 121.64C43.8726 121.693 43.8726 121.733 43.8726 121.76H39.3426C39.4026 122.32 39.6259 122.773 40.0126 123.12C40.4059 123.46 40.8892 123.63 41.4626 123.63C41.8626 123.63 42.2126 123.547 42.5126 123.38C42.8126 123.213 43.0392 122.993 43.1926 122.72L43.6326 122.98C43.4259 123.327 43.1326 123.603 42.7526 123.81C42.3726 124.01 41.9392 124.11 41.4526 124.11C40.6859 124.11 40.0559 123.867 39.5626 123.38C39.0692 122.887 38.8226 122.26 38.8226 121.5C38.8226 120.753 39.0626 120.133 39.5426 119.64C40.0292 119.14 40.6526 118.89 41.4126 118.89ZM41.4126 119.37C40.8459 119.37 40.3726 119.547 39.9926 119.9C39.6126 120.253 39.3959 120.71 39.3426 121.27H43.3626C43.3092 120.677 43.0959 120.213 42.7226 119.88C42.3559 119.54 41.9192 119.37 41.4126 119.37ZM51.6973 117.5H48.3473V120.3H51.5773V120.8H48.3473V124H47.8173V117H51.6973V117.5ZM55.183 124.11C54.4497 124.11 53.8264 123.86 53.313 123.36C52.8064 122.853 52.553 122.233 52.553 121.5C52.553 120.767 52.8064 120.15 53.313 119.65C53.8264 119.143 54.4497 118.89 55.183 118.89C55.9097 118.89 56.5264 119.143 57.033 119.65C57.5464 120.15 57.803 120.767 57.803 121.5C57.803 122.233 57.5464 122.853 57.033 123.36C56.5264 123.86 55.9097 124.11 55.183 124.11ZM53.673 123.01C54.0864 123.423 54.5897 123.63 55.183 123.63C55.7764 123.63 56.2764 123.423 56.683 123.01C57.0897 122.597 57.293 122.093 57.293 121.5C57.293 120.907 57.0897 120.403 56.683 119.99C56.2764 119.577 55.7764 119.37 55.183 119.37C54.5897 119.37 54.0864 119.577 53.673 119.99C53.2664 120.403 53.063 120.907 53.063 121.5C53.063 122.093 53.2664 122.597 53.673 123.01ZM62.6063 119H63.1063V124H62.6063V123.05C62.2463 123.757 61.6497 124.11 60.8163 124.11C60.223 124.11 59.7497 123.93 59.3963 123.57C59.0497 123.203 58.8763 122.717 58.8763 122.11V119H59.3863V122.11C59.3863 122.577 59.513 122.947 59.7663 123.22C60.0263 123.493 60.3897 123.63 60.8563 123.63C61.3697 123.63 61.7897 123.46 62.1163 123.12C62.443 122.78 62.6063 122.287 62.6063 121.64V119ZM65.1509 119.98C65.4509 119.28 66.0075 118.93 66.8209 118.93V119.41C66.3475 119.41 65.9509 119.563 65.6309 119.87C65.3109 120.17 65.1509 120.62 65.1509 121.22V124H64.6509V119H65.1509V119.98Z" fill="white"/>
<rect x="108" y="15.0001" width="44" height="44" rx="11" fill="white"/>
<path d="M125 42.0001L135 32.0001" stroke="black" stroke-width="2" stroke-linecap="round" stroke-linejoin="round"/>
<path d="M125 32.0001H135V42.0001" stroke="black" stroke-width="2" stroke-linecap="round" stroke-linejoin="round"/>
<defs>
<linearGradient id="paint0_linear_43_22032" x1="153.346" y1="33.103" x2="137.785" y2="197.611" gradientUnits="userSpaceOnUse">
<stop stop-color="#FE8245"/>
<stop offset="1" stop-color="#FE5704"/>
</linearGradient>
<linearGradient id="paint1_linear_43_22032" x1="118.332" y1="29.7908" x2="102.77" y2="194.299" gradientUnits="userSpaceOnUse">
<stop stop-color="#FE8245"/>
<stop offset="1" stop-color="#FE5704"/>
</linearGradient>
<linearGradient id="paint2_linear_43_22032" x1="82.7413" y1="26.4242" x2="67.1797" y2="190.933" gradientUnits="userSpaceOnUse">
<stop stop-color="#FE8245"/>
<stop offset="1" stop-color="#FE5704"/>
</linearGradient>
<linearGradient id="paint3_linear_43_22032" x1="153.965" y1="33.1615" x2="138.404" y2="197.67" gradientUnits="userSpaceOnUse">
<stop stop-color="#FE8245"/>
<stop offset="1" stop-color="#FE5704"/>
</linearGradient>
<linearGradient id="paint4_linear_43_22032" x1="83.5153" y1="26.4974" x2="67.9537" y2="191.006" gradientUnits="userSpaceOnUse">
<stop stop-color="#FE8245"/>
<stop offset="1" stop-color="#FE5704"/>
</linearGradient>
<linearGradient id="paint5_linear_43_22032" x1="119.133" y1="29.8666" x2="103.572" y2="194.375" gradientUnits="userSpaceOnUse">
<stop stop-color="#FE8245"/>
<stop offset="1" stop-color="#FE5704"/>
</linearGradient>
<linearGradient id="paint6_linear_43_22032" x1="154.894" y1="33.2494" x2="139.333" y2="197.758" gradientUnits="userSpaceOnUse">
<stop stop-color="#FE8245"/>
<stop offset="1" stop-color="#FE5704"/>
</linearGradient>
<linearGradient id="paint7_linear_43_22032" x1="70.4081" y1="46.9963" x2="243.364" y2="41.2163" gradientUnits="userSpaceOnUse">
<stop stop-color="#FE5704"/>
<stop offset="1"/>
</linearGradient>
<linearGradient id="paint8_linear_43_22032" x1="71.3278" y1="74.5165" x2="244.284" y2="68.7365" gradientUnits="userSpaceOnUse">
<stop stop-color="#FE5704"/>
<stop offset="1"/>
</linearGradient>
<linearGradient id="paint9_linear_43_22032" x1="71.2819" y1="73.1412" x2="244.238" y2="67.3612" gradientUnits="userSpaceOnUse">
<stop stop-color="#FE5704"/>
<stop offset="1"/>
</linearGradient>
<linearGradient id="paint10_linear_43_22032" x1="72.2693" y1="102.689" x2="245.225" y2="96.9091" gradientUnits="userSpaceOnUse">
<stop stop-color="#FE5704"/>
<stop offset="1"/>
</linearGradient>
<linearGradient id="paint11_linear_43_22032" x1="72.194" y1="100.435" x2="245.15" y2="94.6554" gradientUnits="userSpaceOnUse">
<stop stop-color="#FE5704"/>
<stop offset="1"/>
</linearGradient>
<linearGradient id="paint12_linear_43_22032" x1="73.17" y1="129.64" x2="246.126" y2="123.86" gradientUnits="userSpaceOnUse">
<stop stop-color="#FE5704"/>
<stop offset="1"/>
</linearGradient>
<linearGradient id="paint13_linear_43_22032" x1="74.0902" y1="157.172" x2="247.046" y2="151.392" gradientUnits="userSpaceOnUse">
<stop stop-color="#FE5704"/>
<stop offset="1"/>
</linearGradient>
<linearGradient id="paint14_linear_43_22032" x1="74.9718" y1="183.555" x2="247.928" y2="177.775" gradientUnits="userSpaceOnUse">
<stop stop-color="#FE5704"/>
<stop offset="1"/>
</linearGradient>
<clipPath id="clip0_43_22032">
<rect width="167" height="167" fill="white"/>
</clipPath>
</defs>
</svg>
