<svg width="167" height="167" viewBox="0 0 167 167" fill="none" xmlns="http://www.w3.org/2000/svg">
<g clip-path="url(#clip0_43_21915)">
<path d="M10 0H157C162.5 0 167 4.5 167 10V157C167 162.5 162.5 167 157 167H10C4.5 167 0 162.5 0 157V10C0 4.5 4.5 0 10 0Z" fill="#FE5704"/>
<mask id="mask0_43_21915" style="mask-type:luminance" maskUnits="userSpaceOnUse" x="0" y="0" width="167" height="167">
<path d="M10 0H157C162.5 0 167 4.5 167 10V157C167 162.5 162.5 167 157 167H10C4.5 167 0 162.5 0 157V10C0 4.5 4.5 0 10 0Z" fill="white"/>
</mask>
<g mask="url(#mask0_43_21915)">
<path d="M149.9 33.3L154.9 53.6L155.9 42.1L150.9 21.9L149.9 33.3Z" fill="url(#paint0_linear_43_21915)"/>
<path d="M109.2 91.1L114.2 111.3L116.6 83.5L111.6 63.2L109.2 91.1Z" fill="url(#paint1_linear_43_21915)"/>
<path d="M71.8 109.5L76.8 129.8L82.8 57.6L77.8 37.3L71.8 109.5Z" fill="url(#paint2_linear_43_21915)"/>
<path d="M143.9 105.5L148.9 125.8L152.6 81.4L147.6 61.2L143.9 105.5Z" fill="url(#paint3_linear_43_21915)"/>
<path d="M67.2001 165.3L72.2001 185.5L75.9001 141.2L70.9001 120.9L67.2001 165.3Z" fill="url(#paint4_linear_43_21915)"/>
<path d="M103.2 163.2L108.2 183.5L110.5 155.6L105.5 135.4L103.2 163.2Z" fill="url(#paint5_linear_43_21915)"/>
<path d="M138.3 172.7L143.3 192.9L144.3 181.5L139.3 161.2L138.3 172.7Z" fill="url(#paint6_linear_43_21915)"/>
<path d="M154.9 53.6L149.9 33.3L77.8 37.3L82.8 57.6L154.9 53.6Z" fill="url(#paint7_linear_43_21915)"/>
<path d="M137.8 82.3L132.8 62L111.6 63.2L116.6 83.5L137.8 82.3Z" fill="url(#paint8_linear_43_21915)"/>
<path d="M147.6 61.2L152.6 81.4L224.7 77.4L219.7 57.2L147.6 61.2Z" fill="url(#paint9_linear_43_21915)"/>
<path d="M94.4 91.9L99.4 112.2L114.2 111.3L109.2 91.1L94.4 91.9Z" fill="url(#paint10_linear_43_21915)"/>
<path d="M238.6 83.8L166.5 87.9L171.5 108.1L243.6 104.1L238.6 83.8Z" fill="url(#paint11_linear_43_21915)"/>
<path d="M133.1 138L148 137.2L205.2 134L200.2 113.7L143 116.9L128.2 117.8L70.9 120.9L75.9 141.2L133.1 138Z" fill="url(#paint12_linear_43_21915)"/>
<path d="M130.8 165.9L166.9 163.9L161.9 143.6L125.8 145.6L130.8 165.9Z" fill="url(#paint13_linear_43_21915)"/>
<path d="M246.4 166.6L231.6 167.5L174.4 170.7L159.6 171.5L164.6 191.8L179.3 190.9L236.6 187.7L251.4 186.9L246.4 166.6Z" fill="url(#paint14_linear_43_21915)"/>
<path d="M105.5 135.4L90.8 136.2L88.4 164.1L67.2 165.3L70.9 120.9L128.2 117.8L143 116.9L200.2 113.7L197.9 141.6L212.7 140.8L215 112.9L216 101.5L201.2 102.3L143.9 105.5L147.6 61.2L219.7 57.2L220.7 45.7L148.6 49.7L133.8 50.6L112.5 51.8L97.7 52.6L96.8 64L94.4 91.9L109.2 91.1L111.6 63.2L132.8 62L129.1 106.3L71.8 109.5L77.8 37.3L149.9 33.3L150.9 21.9L78.8 25.9L64 26.7L63 38.2L57 110.3L56.1 121.8L52.4 166.1L51.4 177.5L66.2 176.7L87.5 175.5L102.3 174.7L138.3 172.7L139.3 161.2L103.2 163.2L105.5 135.4Z" fill="#FE5704"/>
<path d="M244.2 16.7L172.1 20.7L171.2 32.1L243.3 28.1L239.6 72.4L167.5 76.4L166.5 87.9L238.6 83.8L232.6 156L175.3 159.2L176.7 142.8L177.6 131.3L162.8 132.2L126.8 134.2L125.8 145.6L161.9 143.6L160.5 160L159.6 171.5L174.4 170.7L231.6 167.5L246.4 166.6L247.4 155.2L253.4 83L254.4 71.6L258.1 27.3L259 15.8L244.2 16.7Z" fill="#FE5704"/>
</g>
<path d="M30.9001 25C29.6001 25 28.6001 23.9 28.6001 22.7V18C28.6001 16.7 29.7001 15.7 30.9001 15.7H35.6001C36.9001 15.7 37.9001 16.8 37.9001 18V22.7C37.9001 24 36.8001 25 35.6001 25H30.9001Z" fill="white"/>
<path d="M35.5001 16C36.6001 16 37.5001 16.9 37.5001 18V22.7C37.5001 23.8 36.6001 24.7 35.5001 24.7H30.8001C29.7001 24.7 28.8001 23.8 28.8001 22.7V18C28.8001 16.9 29.7001 16 30.8001 16H35.5001ZM35.5001 15.3H30.8001C29.3001 15.3 28.1001 16.5 28.1001 18V22.7C28.1001 24.2 29.3001 25.4 30.8001 25.4H35.5001C37.0001 25.4 38.2001 24.2 38.2001 22.7V18C38.2001 16.6 37.0001 15.3 35.5001 15.3Z" fill="#FE5704"/>
<path d="M15.4001 32.5C14.1001 32.5 13.1001 31.4 13.1001 30.2V25.5C13.1001 24.2 14.2001 23.2 15.4001 23.2H20.0001C21.3001 23.2 22.3001 24.3 22.3001 25.5V30.2C22.3001 31.5 21.2001 32.5 20.0001 32.5H15.4001Z" fill="white"/>
<path d="M20.0001 23.5C21.1001 23.5 22.0001 24.4 22.0001 25.5V30.2C22.0001 31.3 21.1001 32.2 20.0001 32.2H15.3001C14.2001 32.2 13.3001 31.3 13.3001 30.2V25.5C13.3001 24.4 14.2001 23.5 15.3001 23.5H20.0001ZM20.0001 22.8H15.3001C13.8001 22.8 12.6001 24 12.6001 25.5V30.2C12.6001 31.7 13.8001 32.9 15.3001 32.9H20.0001C21.5001 32.9 22.7001 31.7 22.7001 30.2V25.5C22.7001 24 21.5001 22.8 20.0001 22.8Z" fill="#FE5704"/>
<path d="M20.5 25C19.2 25 18.2 23.9 18.2 22.7V18C18.2 16.7 19.3 15.7 20.5 15.7H25.2C26.5 15.7 27.5 16.8 27.5 18V22.7C27.5 24 26.4 25 25.2 25H20.5Z" fill="white"/>
<path d="M25.2001 16C26.3001 16 27.2001 16.9 27.2001 18V22.7C27.2001 23.8 26.3001 24.7 25.2001 24.7H20.5C19.4 24.7 18.5 23.8 18.5 22.7V18C18.5 16.9 19.4 16 20.5 16H25.2001ZM25.2001 15.3H20.5C19 15.3 17.8 16.5 17.8 18V22.7C17.8 24.2 19 25.4 20.5 25.4H25.2001C26.7001 25.4 27.9 24.2 27.9 22.7V18C27.9 16.6 26.7001 15.3 25.2001 15.3Z" fill="#FE5704"/>
<path d="M25.6999 32.5C24.3999 32.5 23.3999 31.4 23.3999 30.2V25.5C23.3999 24.2 24.4999 23.2 25.6999 23.2H30.3999C31.6999 23.2 32.6999 24.3 32.6999 25.5V30.2C32.6999 31.5 31.5999 32.5 30.3999 32.5H25.6999Z" fill="white"/>
<path d="M30.4 23.5C31.5 23.5 32.4 24.4 32.4 25.5V30.2C32.4 31.3 31.5 32.2 30.4 32.2H25.7C24.6 32.2 23.7 31.3 23.7 30.2V25.5C23.7 24.4 24.6 23.5 25.7 23.5H30.4ZM30.4 22.8H25.7C24.2 22.8 23 24 23 25.5V30.2C23 31.7 24.2 32.9 25.7 32.9H30.4C31.9 32.9 33.1 31.7 33.1 30.2V25.5C33.1 24 31.9 22.8 30.4 22.8Z" fill="#FE5704"/>
</g>
<path d="M24.02 136.48H31.04V137.56C31.04 139.56 30.4 141.18 29.12 142.42C27.84 143.66 26.1867 144.28 24.16 144.28C22 144.28 20.2067 143.58 18.78 142.18C17.3667 140.767 16.66 139.047 16.66 137.02C16.66 134.98 17.36 133.253 18.76 131.84C20.1733 130.427 21.92 129.72 24 129.72C25.2933 129.72 26.48 130.013 27.56 130.6C28.64 131.187 29.4867 131.98 30.1 132.98L27.74 134.34C27.4067 133.767 26.9 133.3 26.22 132.94C25.54 132.58 24.7933 132.4 23.98 132.4C22.6333 132.4 21.5333 132.84 20.68 133.72C19.8267 134.573 19.4 135.673 19.4 137.02C19.4 138.34 19.8333 139.433 20.7 140.3C21.5667 141.153 22.7267 141.58 24.18 141.58C25.2333 141.58 26.1133 141.347 26.82 140.88C27.5267 140.413 28.0067 139.76 28.26 138.92H24.02V136.48ZM35.4631 134V135.72C35.6898 135.093 36.0765 134.62 36.6231 134.3C37.1698 133.967 37.7965 133.8 38.5031 133.8V136.68C37.7165 136.573 37.0098 136.733 36.3831 137.16C35.7698 137.573 35.4631 138.26 35.4631 139.22V144H32.8831V134H35.4631ZM48.1609 142.76C47.1476 143.773 45.8943 144.28 44.4009 144.28C42.9076 144.28 41.6543 143.773 40.6409 142.76C39.6276 141.747 39.1209 140.493 39.1209 139C39.1209 137.52 39.6276 136.273 40.6409 135.26C41.6676 134.233 42.9209 133.72 44.4009 133.72C45.8809 133.72 47.1343 134.233 48.1609 135.26C49.1876 136.287 49.7009 137.533 49.7009 139C49.7009 140.48 49.1876 141.733 48.1609 142.76ZM42.4609 140.98C42.9809 141.5 43.6276 141.76 44.4009 141.76C45.1743 141.76 45.8209 141.5 46.3409 140.98C46.8609 140.46 47.1209 139.8 47.1209 139C47.1209 138.2 46.8609 137.54 46.3409 137.02C45.8209 136.5 45.1743 136.24 44.4009 136.24C43.6276 136.24 42.9809 136.5 42.4609 137.02C41.9543 137.553 41.7009 138.213 41.7009 139C41.7009 139.787 41.9543 140.447 42.4609 140.98ZM58.1159 139.4V134H60.6959V144H58.1159V142.88C57.5026 143.813 56.5093 144.28 55.1359 144.28C54.0426 144.28 53.1359 143.913 52.4159 143.18C51.7093 142.433 51.3559 141.42 51.3559 140.14V134H53.9359V139.82C53.9359 140.473 54.1093 140.98 54.4559 141.34C54.8159 141.7 55.3026 141.88 55.9159 141.88C56.5959 141.88 57.1293 141.673 57.5159 141.26C57.9159 140.833 58.1159 140.213 58.1159 139.4ZM68.8789 133.72C70.2256 133.72 71.3722 134.233 72.3189 135.26C73.2789 136.287 73.7589 137.533 73.7589 139C73.7589 140.493 73.2789 141.747 72.3189 142.76C71.3856 143.773 70.2389 144.28 68.8789 144.28C67.4789 144.28 66.3989 143.793 65.6389 142.82V148H63.0589V134H65.6389V135.18C66.3989 134.207 67.4789 133.72 68.8789 133.72ZM66.4189 141.04C66.9389 141.56 67.5989 141.82 68.3989 141.82C69.1989 141.82 69.8589 141.56 70.3789 141.04C70.9122 140.507 71.1789 139.827 71.1789 139C71.1789 138.173 70.9122 137.5 70.3789 136.98C69.8589 136.447 69.1989 136.18 68.3989 136.18C67.5989 136.18 66.9389 136.447 66.4189 136.98C65.8989 137.5 65.6389 138.173 65.6389 139C65.6389 139.827 65.8989 140.507 66.4189 141.04ZM85.4784 144.28C84.1051 144.28 82.9451 143.973 81.9984 143.36C81.0518 142.747 80.3784 141.9 79.9784 140.82L82.3384 139.44C82.8851 140.867 83.9584 141.58 85.5584 141.58C86.3051 141.58 86.8651 141.447 87.2384 141.18C87.6118 140.913 87.7984 140.553 87.7984 140.1C87.7984 139.607 87.5784 139.227 87.1384 138.96C86.6984 138.68 85.9118 138.38 84.7784 138.06C83.5518 137.687 82.5851 137.253 81.8784 136.76C80.9984 136.107 80.5584 135.147 80.5584 133.88C80.5584 132.6 81.0051 131.593 81.8984 130.86C82.7918 130.1 83.8784 129.72 85.1584 129.72C86.2784 129.72 87.2718 129.993 88.1384 130.54C89.0051 131.087 89.6784 131.86 90.1584 132.86L87.8384 134.2C87.2784 133 86.3851 132.4 85.1584 132.4C84.5984 132.4 84.1518 132.533 83.8184 132.8C83.4851 133.053 83.3184 133.387 83.3184 133.8C83.3184 134.24 83.4984 134.6 83.8584 134.88C84.2584 135.16 84.9651 135.453 85.9784 135.76L86.9384 136.08C87.1118 136.133 87.4118 136.247 87.8384 136.42C88.2384 136.567 88.5318 136.707 88.7184 136.84C89.3718 137.24 89.8118 137.653 90.0384 138.08C90.3851 138.64 90.5584 139.3 90.5584 140.06C90.5584 141.353 90.0851 142.38 89.1384 143.14C88.1918 143.9 86.9718 144.28 85.4784 144.28ZM97.6656 134V136.48H95.4056V140.64C95.4056 140.987 95.4923 141.24 95.6656 141.4C95.839 141.56 96.0923 141.653 96.4256 141.68C96.759 141.693 97.1723 141.687 97.6656 141.66V144C95.919 144.2 94.6723 144.04 93.9256 143.52C93.1923 142.987 92.8256 142.027 92.8256 140.64V136.48H91.0856V134H92.8256V131.98L95.4056 131.2V134H97.6656ZM106.772 135.18V134H109.352V144H106.772V142.82C105.999 143.793 104.912 144.28 103.512 144.28C102.179 144.28 101.032 143.773 100.072 142.76C99.1255 141.733 98.6522 140.48 98.6522 139C98.6522 137.533 99.1255 136.287 100.072 135.26C101.032 134.233 102.179 133.72 103.512 133.72C104.912 133.72 105.999 134.207 106.772 135.18ZM102.012 141.04C102.532 141.56 103.192 141.82 103.992 141.82C104.792 141.82 105.452 141.56 105.972 141.04C106.506 140.507 106.772 139.827 106.772 139C106.772 138.173 106.506 137.5 105.972 136.98C105.452 136.447 104.792 136.18 103.992 136.18C103.192 136.18 102.532 136.447 102.012 136.98C101.492 137.5 101.232 138.173 101.232 139C101.232 139.827 101.492 140.507 102.012 141.04ZM119.352 135.24V134H121.872V143.52C121.872 145.053 121.358 146.233 120.332 147.06C119.318 147.873 118.092 148.28 116.652 148.28C114.385 148.28 112.805 147.467 111.912 145.84L114.112 144.58C114.605 145.513 115.478 145.98 116.732 145.98C117.545 145.98 118.185 145.767 118.652 145.34C119.118 144.913 119.352 144.307 119.352 143.52V142.44C118.592 143.453 117.525 143.96 116.152 143.96C114.738 143.96 113.552 143.467 112.592 142.48C111.645 141.467 111.172 140.253 111.172 138.84C111.172 137.427 111.652 136.22 112.612 135.22C113.572 134.22 114.752 133.72 116.152 133.72C117.525 133.72 118.592 134.227 119.352 135.24ZM118.552 140.82C119.085 140.3 119.352 139.64 119.352 138.84C119.352 138.04 119.085 137.393 118.552 136.9C118.032 136.38 117.365 136.12 116.552 136.12C115.752 136.12 115.078 136.38 114.532 136.9C114.012 137.393 113.752 138.04 113.752 138.84C113.752 139.64 114.012 140.3 114.532 140.82C115.065 141.327 115.738 141.58 116.552 141.58C117.365 141.58 118.032 141.327 118.552 140.82ZM133.931 140.06H126.391C126.725 141.313 127.665 141.94 129.211 141.94C130.198 141.94 130.945 141.607 131.451 140.94L133.531 142.14C132.545 143.567 131.091 144.28 129.171 144.28C127.518 144.28 126.191 143.78 125.191 142.78C124.191 141.78 123.691 140.52 123.691 139C123.691 137.507 124.185 136.253 125.171 135.24C126.145 134.227 127.411 133.72 128.971 133.72C130.451 133.72 131.658 134.227 132.591 135.24C133.551 136.253 134.031 137.507 134.031 139C134.031 139.28 133.998 139.633 133.931 140.06ZM126.351 138.06H131.451C131.305 137.407 131.005 136.907 130.551 136.56C130.111 136.213 129.585 136.04 128.971 136.04C128.278 136.04 127.705 136.22 127.251 136.58C126.798 136.927 126.498 137.42 126.351 138.06Z" fill="white"/>
<path d="M19.25 116C19.8767 116 20.3967 116.207 20.81 116.62C21.2233 117.033 21.43 117.55 21.43 118.17C21.43 118.79 21.2233 119.307 20.81 119.72C20.3967 120.127 19.8767 120.33 19.25 120.33H17.4V123H16.87V116H19.25ZM19.25 119.83C19.73 119.83 20.1233 119.673 20.43 119.36C20.7433 119.047 20.9 118.65 20.9 118.17C20.9 117.683 20.7433 117.283 20.43 116.97C20.1233 116.657 19.73 116.5 19.25 116.5H17.4V119.83H19.25ZM24.9291 117.89C25.5225 117.89 25.9925 118.073 26.3391 118.44C26.6925 118.8 26.8691 119.283 26.8691 119.89V123H26.3591V119.89C26.3591 119.423 26.2291 119.053 25.9691 118.78C25.7158 118.507 25.3558 118.37 24.8891 118.37C24.3758 118.37 23.9558 118.54 23.6291 118.88C23.3025 119.22 23.1391 119.713 23.1391 120.36V123H22.6391V116H23.1391V118.95C23.4991 118.243 24.0958 117.89 24.9291 117.89ZM32.6837 118H33.1937V123H32.6837V121.87C32.4703 122.257 32.177 122.56 31.8037 122.78C31.4303 123 31.007 123.11 30.5337 123.11C29.8203 123.11 29.2103 122.86 28.7037 122.36C28.197 121.853 27.9437 121.233 27.9437 120.5C27.9437 119.767 28.197 119.15 28.7037 118.65C29.2103 118.143 29.8203 117.89 30.5337 117.89C31.007 117.89 31.4303 118 31.8037 118.22C32.177 118.44 32.4703 118.743 32.6837 119.13V118ZM29.0637 122.01C29.477 122.423 29.9803 122.63 30.5737 122.63C31.167 122.63 31.667 122.423 32.0737 122.01C32.4803 121.597 32.6837 121.093 32.6837 120.5C32.6837 119.907 32.4803 119.403 32.0737 118.99C31.667 118.577 31.167 118.37 30.5737 118.37C29.9803 118.37 29.477 118.577 29.0637 118.99C28.657 119.403 28.4537 119.907 28.4537 120.5C28.4537 121.093 28.657 121.597 29.0637 122.01ZM35.069 119.31C35.069 119.557 35.1723 119.75 35.379 119.89C35.5857 120.03 35.839 120.137 36.139 120.21C36.439 120.277 36.7357 120.353 37.029 120.44C37.329 120.527 37.5823 120.673 37.789 120.88C37.9957 121.08 38.099 121.35 38.099 121.69C38.099 122.103 37.9323 122.443 37.599 122.71C37.2723 122.977 36.8423 123.11 36.309 123.11C35.829 123.11 35.4223 123.01 35.089 122.81C34.7623 122.603 34.5357 122.333 34.409 122L34.839 121.75C34.9323 122.023 35.1057 122.24 35.359 122.4C35.619 122.553 35.9357 122.63 36.309 122.63C36.6823 122.63 36.989 122.55 37.229 122.39C37.4757 122.223 37.599 121.99 37.599 121.69C37.599 121.443 37.4957 121.247 37.289 121.1C37.0823 120.953 36.829 120.847 36.529 120.78C36.229 120.707 35.929 120.627 35.629 120.54C35.3357 120.453 35.0857 120.31 34.879 120.11C34.6723 119.91 34.569 119.643 34.569 119.31C34.569 118.91 34.7257 118.573 35.039 118.3C35.359 118.027 35.769 117.89 36.269 117.89C36.669 117.89 37.0157 117.98 37.309 118.16C37.609 118.34 37.829 118.583 37.969 118.89L37.549 119.13C37.449 118.883 37.2823 118.697 37.049 118.57C36.8157 118.437 36.5557 118.37 36.269 118.37C35.929 118.37 35.6423 118.457 35.409 118.63C35.1823 118.797 35.069 119.023 35.069 119.31ZM41.4126 117.89C42.1459 117.89 42.7392 118.15 43.1926 118.67C43.6526 119.19 43.8826 119.807 43.8826 120.52C43.8826 120.547 43.8792 120.587 43.8726 120.64C43.8726 120.693 43.8726 120.733 43.8726 120.76H39.3426C39.4026 121.32 39.6259 121.773 40.0126 122.12C40.4059 122.46 40.8892 122.63 41.4626 122.63C41.8626 122.63 42.2126 122.547 42.5126 122.38C42.8126 122.213 43.0392 121.993 43.1926 121.72L43.6326 121.98C43.4259 122.327 43.1326 122.603 42.7526 122.81C42.3726 123.01 41.9392 123.11 41.4526 123.11C40.6859 123.11 40.0559 122.867 39.5626 122.38C39.0692 121.887 38.8226 121.26 38.8226 120.5C38.8226 119.753 39.0626 119.133 39.5426 118.64C40.0292 118.14 40.6526 117.89 41.4126 117.89ZM41.4126 118.37C40.8459 118.37 40.3726 118.547 39.9926 118.9C39.6126 119.253 39.3959 119.71 39.3426 120.27H43.3626C43.3092 119.677 43.0959 119.213 42.7226 118.88C42.3559 118.54 41.9192 118.37 41.4126 118.37ZM52.1173 116V116.5H49.9173V123H49.3773V116.5H47.1773V116H52.1173ZM58.6896 118H59.2196L57.6396 123H57.0896L55.6996 118.74L54.3096 123H53.7596L52.1796 118H52.7096L54.0396 122.35L55.4396 118H55.9596L57.3596 122.35L58.6896 118ZM62.4096 123.11C61.6763 123.11 61.0529 122.86 60.5396 122.36C60.0329 121.853 59.7796 121.233 59.7796 120.5C59.7796 119.767 60.0329 119.15 60.5396 118.65C61.0529 118.143 61.6763 117.89 62.4096 117.89C63.1363 117.89 63.7529 118.143 64.2596 118.65C64.7729 119.15 65.0296 119.767 65.0296 120.5C65.0296 121.233 64.7729 121.853 64.2596 122.36C63.7529 122.86 63.1363 123.11 62.4096 123.11ZM60.8996 122.01C61.3129 122.423 61.8163 122.63 62.4096 122.63C63.0029 122.63 63.5029 122.423 63.9096 122.01C64.3163 121.597 64.5196 121.093 64.5196 120.5C64.5196 119.907 64.3163 119.403 63.9096 118.99C63.5029 118.577 63.0029 118.37 62.4096 118.37C61.8163 118.37 61.3129 118.577 60.8996 118.99C60.4929 119.403 60.2896 119.907 60.2896 120.5C60.2896 121.093 60.4929 121.597 60.8996 122.01Z" fill="white"/>
<rect x="108" y="14.0001" width="44" height="44" rx="11" fill="white"/>
<path d="M125 41.0001L135 31.0001" stroke="black" stroke-width="2" stroke-linecap="round" stroke-linejoin="round"/>
<path d="M125 31.0001H135V41.0001" stroke="black" stroke-width="2" stroke-linecap="round" stroke-linejoin="round"/>
<defs>
<linearGradient id="paint0_linear_43_21915" x1="153.346" y1="33.103" x2="137.785" y2="197.611" gradientUnits="userSpaceOnUse">
<stop stop-color="#FE8245"/>
<stop offset="1" stop-color="#FE5704"/>
</linearGradient>
<linearGradient id="paint1_linear_43_21915" x1="118.332" y1="29.7908" x2="102.77" y2="194.299" gradientUnits="userSpaceOnUse">
<stop stop-color="#FE8245"/>
<stop offset="1" stop-color="#FE5704"/>
</linearGradient>
<linearGradient id="paint2_linear_43_21915" x1="82.7413" y1="26.4242" x2="67.1797" y2="190.933" gradientUnits="userSpaceOnUse">
<stop stop-color="#FE8245"/>
<stop offset="1" stop-color="#FE5704"/>
</linearGradient>
<linearGradient id="paint3_linear_43_21915" x1="153.965" y1="33.1616" x2="138.404" y2="197.67" gradientUnits="userSpaceOnUse">
<stop stop-color="#FE8245"/>
<stop offset="1" stop-color="#FE5704"/>
</linearGradient>
<linearGradient id="paint4_linear_43_21915" x1="83.5153" y1="26.4974" x2="67.9537" y2="191.006" gradientUnits="userSpaceOnUse">
<stop stop-color="#FE8245"/>
<stop offset="1" stop-color="#FE5704"/>
</linearGradient>
<linearGradient id="paint5_linear_43_21915" x1="119.133" y1="29.8666" x2="103.572" y2="194.375" gradientUnits="userSpaceOnUse">
<stop stop-color="#FE8245"/>
<stop offset="1" stop-color="#FE5704"/>
</linearGradient>
<linearGradient id="paint6_linear_43_21915" x1="154.894" y1="33.2494" x2="139.333" y2="197.758" gradientUnits="userSpaceOnUse">
<stop stop-color="#FE8245"/>
<stop offset="1" stop-color="#FE5704"/>
</linearGradient>
<linearGradient id="paint7_linear_43_21915" x1="70.4081" y1="46.9963" x2="243.364" y2="41.2163" gradientUnits="userSpaceOnUse">
<stop stop-color="#FE5704"/>
<stop offset="1"/>
</linearGradient>
<linearGradient id="paint8_linear_43_21915" x1="71.3278" y1="74.5165" x2="244.284" y2="68.7365" gradientUnits="userSpaceOnUse">
<stop stop-color="#FE5704"/>
<stop offset="1"/>
</linearGradient>
<linearGradient id="paint9_linear_43_21915" x1="71.2819" y1="73.1412" x2="244.238" y2="67.3612" gradientUnits="userSpaceOnUse">
<stop stop-color="#FE5704"/>
<stop offset="1"/>
</linearGradient>
<linearGradient id="paint10_linear_43_21915" x1="72.2693" y1="102.689" x2="245.225" y2="96.9091" gradientUnits="userSpaceOnUse">
<stop stop-color="#FE5704"/>
<stop offset="1"/>
</linearGradient>
<linearGradient id="paint11_linear_43_21915" x1="72.194" y1="100.435" x2="245.15" y2="94.6554" gradientUnits="userSpaceOnUse">
<stop stop-color="#FE5704"/>
<stop offset="1"/>
</linearGradient>
<linearGradient id="paint12_linear_43_21915" x1="73.17" y1="129.64" x2="246.126" y2="123.86" gradientUnits="userSpaceOnUse">
<stop stop-color="#FE5704"/>
<stop offset="1"/>
</linearGradient>
<linearGradient id="paint13_linear_43_21915" x1="74.0902" y1="157.172" x2="247.046" y2="151.392" gradientUnits="userSpaceOnUse">
<stop stop-color="#FE5704"/>
<stop offset="1"/>
</linearGradient>
<linearGradient id="paint14_linear_43_21915" x1="74.9718" y1="183.555" x2="247.928" y2="177.775" gradientUnits="userSpaceOnUse">
<stop stop-color="#FE5704"/>
<stop offset="1"/>
</linearGradient>
<clipPath id="clip0_43_21915">
<rect width="167" height="167" fill="white"/>
</clipPath>
</defs>
</svg>
