<svg width="33" height="39" viewBox="0 0 33 39" fill="none" xmlns="http://www.w3.org/2000/svg">
<path d="M5.90756 29.936V26.6H7.55156V35H5.90756V31.52H2.78756V35H1.13156V26.6H2.78756V29.936H5.90756ZM14.152 34.256C13.544 34.864 12.792 35.168 11.896 35.168C11 35.168 10.248 34.864 9.64003 34.256C9.03203 33.648 8.72803 32.896 8.72803 32C8.72803 31.112 9.03203 30.364 9.64003 29.756C10.256 29.14 11.008 28.832 11.896 28.832C12.784 28.832 13.536 29.14 14.152 29.756C14.768 30.372 15.076 31.12 15.076 32C15.076 32.888 14.768 33.64 14.152 34.256ZM10.732 33.188C11.044 33.5 11.432 33.656 11.896 33.656C12.36 33.656 12.748 33.5 13.06 33.188C13.372 32.876 13.528 32.48 13.528 32C13.528 31.52 13.372 31.124 13.06 30.812C12.748 30.5 12.36 30.344 11.896 30.344C11.432 30.344 11.044 30.5 10.732 30.812C10.428 31.132 10.276 31.528 10.276 32C10.276 32.472 10.428 32.868 10.732 33.188ZM22.801 28.832C23.489 28.832 24.037 29.056 24.445 29.504C24.861 29.952 25.069 30.552 25.069 31.304V35H23.521V31.412C23.521 31.052 23.433 30.772 23.257 30.572C23.081 30.372 22.833 30.272 22.513 30.272C22.161 30.272 21.885 30.388 21.685 30.62C21.493 30.852 21.397 31.188 21.397 31.628V35H19.849V31.412C19.849 31.052 19.761 30.772 19.585 30.572C19.409 30.372 19.161 30.272 18.841 30.272C18.497 30.272 18.221 30.392 18.013 30.632C17.813 30.864 17.713 31.196 17.713 31.628V35H16.165V29H17.713V29.636C18.073 29.1 18.629 28.832 19.381 28.832C20.125 28.832 20.669 29.12 21.013 29.696C21.405 29.12 22.001 28.832 22.801 28.832ZM32.2158 32.636H27.6918C27.8918 33.388 28.4558 33.764 29.3838 33.764C29.9758 33.764 30.4238 33.564 30.7278 33.164L31.9758 33.884C31.3838 34.74 30.5118 35.168 29.3598 35.168C28.3678 35.168 27.5718 34.868 26.9718 34.268C26.3718 33.668 26.0718 32.912 26.0718 32C26.0718 31.104 26.3678 30.352 26.9598 29.744C27.5438 29.136 28.3038 28.832 29.2398 28.832C30.1278 28.832 30.8518 29.136 31.4118 29.744C31.9878 30.352 32.2758 31.104 32.2758 32C32.2758 32.168 32.2558 32.38 32.2158 32.636ZM27.6678 31.436H30.7278C30.6398 31.044 30.4598 30.744 30.1878 30.536C29.9238 30.328 29.6078 30.224 29.2398 30.224C28.8238 30.224 28.4798 30.332 28.2078 30.548C27.9358 30.756 27.7558 31.052 27.6678 31.436Z" fill="#FE5704"/>
<path fill-rule="evenodd" clip-rule="evenodd" d="M6.5192 7.82274C6 8.77128 6 9.91549 6 12.2039V13.725C6 17.6258 6 19.5763 7.17157 20.7881C8.34315 22 10.2288 22 14 22H18C21.7712 22 23.6569 22 24.8284 20.7881C26 19.5763 26 17.6258 26 13.725V12.2039C26 9.91549 26 8.77128 25.4808 7.82274C24.9616 6.87421 24.0131 6.28551 22.116 5.10812L20.116 3.86687C18.1106 2.62229 17.1079 2 16 2C14.8921 2 13.8894 2.62229 11.884 3.86687L9.88403 5.10813C7.98695 6.28551 7.0384 6.87421 6.5192 7.82274ZM13 17.25C12.5858 17.25 12.25 17.5858 12.25 18C12.25 18.4142 12.5858 18.75 13 18.75H19C19.4142 18.75 19.75 18.4142 19.75 18C19.75 17.5858 19.4142 17.25 19 17.25H13Z" fill="#FE5704"/>
</svg>
