<svg width="33" height="38" viewBox="0 0 33 38" fill="none" xmlns="http://www.w3.org/2000/svg">
<path d="M6 12.2039C6 9.91549 6 8.77128 6.5192 7.82274C7.0384 6.87421 7.98695 6.28551 9.88403 5.10813L11.884 3.86687C13.8894 2.62229 14.8921 2 16 2C17.1079 2 18.1106 2.62229 20.116 3.86687L22.116 5.10812C24.0131 6.28551 24.9616 6.87421 25.4808 7.82274C26 8.77128 26 9.91549 26 12.2039V13.725C26 17.6258 26 19.5763 24.8284 20.7881C23.6569 22 21.7712 22 18 22H14C10.2288 22 8.34315 22 7.17157 20.7881C6 19.5763 6 17.6258 6 13.725V12.2039Z" stroke="black" stroke-width="1.5"/>
<path d="M19 18H13" stroke="black" stroke-width="1.5" stroke-linecap="round"/>
<path d="M6.59916 26.6H7.23516V35H6.59916V30.98H1.71516V35H1.07916V26.6H1.71516V30.38H6.59916V26.6ZM11.9454 35.132C11.0654 35.132 10.3174 34.832 9.70144 34.232C9.09344 33.624 8.78944 32.88 8.78944 32C8.78944 31.12 9.09344 30.38 9.70144 29.78C10.3174 29.172 11.0654 28.868 11.9454 28.868C12.8174 28.868 13.5574 29.172 14.1654 29.78C14.7814 30.38 15.0894 31.12 15.0894 32C15.0894 32.88 14.7814 33.624 14.1654 34.232C13.5574 34.832 12.8174 35.132 11.9454 35.132ZM10.1334 33.812C10.6294 34.308 11.2334 34.556 11.9454 34.556C12.6574 34.556 13.2574 34.308 13.7454 33.812C14.2334 33.316 14.4774 32.712 14.4774 32C14.4774 31.288 14.2334 30.684 13.7454 30.188C13.2574 29.692 12.6574 29.444 11.9454 29.444C11.2334 29.444 10.6294 29.692 10.1334 30.188C9.64544 30.684 9.40144 31.288 9.40144 32C9.40144 32.712 9.64544 33.316 10.1334 33.812ZM22.9414 28.868C23.5974 28.868 24.1254 29.072 24.5254 29.48C24.9254 29.888 25.1254 30.46 25.1254 31.196V35H24.5254V31.196C24.5254 30.636 24.3774 30.204 24.0814 29.9C23.7934 29.596 23.4094 29.444 22.9294 29.444C22.3934 29.444 21.9574 29.628 21.6214 29.996C21.2934 30.364 21.1294 30.916 21.1294 31.652V35H20.5294V31.196C20.5294 30.636 20.3894 30.204 20.1094 29.9C19.8374 29.596 19.4654 29.444 18.9934 29.444C18.4654 29.444 18.0214 29.632 17.6614 30.008C17.3094 30.376 17.1334 30.924 17.1334 31.652V35H16.5334V29H17.1334V30.032C17.5494 29.256 18.1934 28.868 19.0654 28.868C19.5054 28.868 19.8894 28.976 20.2174 29.192C20.5454 29.4 20.7854 29.7 20.9374 30.092C21.1454 29.684 21.4254 29.38 21.7774 29.18C22.1374 28.972 22.5254 28.868 22.9414 28.868ZM29.5224 28.868C30.4024 28.868 31.1144 29.18 31.6584 29.804C32.2104 30.428 32.4864 31.168 32.4864 32.024C32.4864 32.056 32.4824 32.104 32.4744 32.168C32.4744 32.232 32.4744 32.28 32.4744 32.312H27.0384C27.1104 32.984 27.3784 33.528 27.8424 33.944C28.3144 34.352 28.8944 34.556 29.5824 34.556C30.0624 34.556 30.4824 34.456 30.8424 34.256C31.2024 34.056 31.4744 33.792 31.6584 33.464L32.1864 33.776C31.9384 34.192 31.5864 34.524 31.1304 34.772C30.6744 35.012 30.1544 35.132 29.5704 35.132C28.6504 35.132 27.8944 34.84 27.3024 34.256C26.7104 33.664 26.4144 32.912 26.4144 32C26.4144 31.104 26.7024 30.36 27.2784 29.768C27.8624 29.168 28.6104 28.868 29.5224 28.868ZM29.5224 29.444C28.8424 29.444 28.2744 29.656 27.8184 30.08C27.3624 30.504 27.1024 31.052 27.0384 31.724H31.8624C31.7984 31.012 31.5424 30.456 31.0944 30.056C30.6544 29.648 30.1304 29.444 29.5224 29.444Z" fill="black"/>
</svg>
