<svg width="167" height="167" viewBox="0 0 167 167" fill="none" xmlns="http://www.w3.org/2000/svg">
<g clip-path="url(#clip0_43_21875)">
<path d="M10 0H157C162.5 0 167 4.5 167 10V157C167 162.5 162.5 167 157 167H10C4.5 167 0 162.5 0 157V10C0 4.5 4.5 0 10 0Z" fill="#FE5704"/>
<mask id="mask0_43_21875" style="mask-type:luminance" maskUnits="userSpaceOnUse" x="0" y="0" width="167" height="167">
<path d="M10 0H157C162.5 0 167 4.5 167 10V157C167 162.5 162.5 167 157 167H10C4.5 167 0 162.5 0 157V10C0 4.5 4.5 0 10 0Z" fill="white"/>
</mask>
<g mask="url(#mask0_43_21875)">
<path d="M149.9 33.3L154.9 53.6L155.9 42.1L150.9 21.9L149.9 33.3Z" fill="url(#paint0_linear_43_21875)"/>
<path d="M109.2 91.1L114.2 111.3L116.6 83.5L111.6 63.2L109.2 91.1Z" fill="url(#paint1_linear_43_21875)"/>
<path d="M71.8 109.5L76.8 129.8L82.8 57.6L77.8 37.3L71.8 109.5Z" fill="url(#paint2_linear_43_21875)"/>
<path d="M143.9 105.5L148.9 125.8L152.6 81.4L147.6 61.2L143.9 105.5Z" fill="url(#paint3_linear_43_21875)"/>
<path d="M67.2001 165.3L72.2001 185.5L75.9001 141.2L70.9001 120.9L67.2001 165.3Z" fill="url(#paint4_linear_43_21875)"/>
<path d="M103.2 163.2L108.2 183.5L110.5 155.6L105.5 135.4L103.2 163.2Z" fill="url(#paint5_linear_43_21875)"/>
<path d="M138.3 172.7L143.3 192.9L144.3 181.5L139.3 161.2L138.3 172.7Z" fill="url(#paint6_linear_43_21875)"/>
<path d="M154.9 53.6L149.9 33.3L77.8 37.3L82.8 57.6L154.9 53.6Z" fill="url(#paint7_linear_43_21875)"/>
<path d="M137.8 82.3L132.8 62L111.6 63.2L116.6 83.5L137.8 82.3Z" fill="url(#paint8_linear_43_21875)"/>
<path d="M147.6 61.2L152.6 81.4L224.7 77.4L219.7 57.2L147.6 61.2Z" fill="url(#paint9_linear_43_21875)"/>
<path d="M94.4 91.9L99.4 112.2L114.2 111.3L109.2 91.1L94.4 91.9Z" fill="url(#paint10_linear_43_21875)"/>
<path d="M238.6 83.8L166.5 87.9L171.5 108.1L243.6 104.1L238.6 83.8Z" fill="url(#paint11_linear_43_21875)"/>
<path d="M133.1 138L148 137.2L205.2 134L200.2 113.7L143 116.9L128.2 117.8L70.9 120.9L75.9 141.2L133.1 138Z" fill="url(#paint12_linear_43_21875)"/>
<path d="M130.8 165.9L166.9 163.9L161.9 143.6L125.8 145.6L130.8 165.9Z" fill="url(#paint13_linear_43_21875)"/>
<path d="M246.4 166.6L231.6 167.5L174.4 170.7L159.6 171.5L164.6 191.8L179.3 190.9L236.6 187.7L251.4 186.9L246.4 166.6Z" fill="url(#paint14_linear_43_21875)"/>
<path d="M105.5 135.4L90.8 136.2L88.4 164.1L67.2 165.3L70.9 120.9L128.2 117.8L143 116.9L200.2 113.7L197.9 141.6L212.7 140.8L215 112.9L216 101.5L201.2 102.3L143.9 105.5L147.6 61.2L219.7 57.2L220.7 45.7L148.6 49.7L133.8 50.6L112.5 51.8L97.7 52.6L96.8 64L94.4 91.9L109.2 91.1L111.6 63.2L132.8 62L129.1 106.3L71.8 109.5L77.8 37.3L149.9 33.3L150.9 21.9L78.8 25.9L64 26.7L63 38.2L57 110.3L56.1 121.8L52.4 166.1L51.4 177.5L66.2 176.7L87.5 175.5L102.3 174.7L138.3 172.7L139.3 161.2L103.2 163.2L105.5 135.4Z" fill="#FE5704"/>
<path d="M244.2 16.7L172.1 20.7L171.2 32.1L243.3 28.1L239.6 72.4L167.5 76.4L166.5 87.9L238.6 83.8L232.6 156L175.3 159.2L176.7 142.8L177.6 131.3L162.8 132.2L126.8 134.2L125.8 145.6L161.9 143.6L160.5 160L159.6 171.5L174.4 170.7L231.6 167.5L246.4 166.6L247.4 155.2L253.4 83L254.4 71.6L258.1 27.3L259 15.8L244.2 16.7Z" fill="#FE5704"/>
</g>
<path d="M15.3 22.2L21.5 16C22.4 15.1 23.8 15.1 24.7 16L30.9 22.2C32.3 23.6 31.3 26 29.3 26H16.9C14.9 26 13.9 23.6 15.3 22.2Z" fill="white"/>
<path d="M30.8 31.8C30.1 31.8 29.4 31.5 28.9 31L22.7 24.8C21.9 24 21.7 22.9 22.1 21.9C22.5 20.9 23.5 20.2 24.6 20.2H37C38.1 20.2 39.1 20.8 39.5 21.9C39.9 22.9 39.7 24 38.9 24.8L32.7 31C32.2 31.5 31.5 31.8 30.8 31.8Z" fill="white"/>
<path d="M37 20.6C39 20.6 40 23 38.6 24.4L32.4 30.6C32 31 31.4 31.3 30.8 31.3C30.2 31.3 29.6 31.1 29.2 30.6L23 24.4C21.6 23 22.6 20.6 24.6 20.6H37ZM37 19.8H24.5C23.2 19.8 22.1 20.5 21.6 21.7C21.1 22.9 21.4 24.2 22.3 25.1L28.5 31.3C29.1 31.9 29.9 32.2 30.7 32.2C31.5 32.2 32.3 31.9 32.9 31.3L39.1 25.1C40 24.2 40.3 22.9 39.8 21.7C39.4 20.5 38.3 19.8 37 19.8Z" fill="#FE5704"/>
</g>
<path d="M20.06 130V141.36H25.4V144H17.3V130H20.06ZM36.3727 140.06H28.8327C29.166 141.313 30.106 141.94 31.6527 141.94C32.6393 141.94 33.386 141.607 33.8927 140.94L35.9727 142.14C34.986 143.567 33.5327 144.28 31.6127 144.28C29.9593 144.28 28.6327 143.78 27.6327 142.78C26.6327 141.78 26.1327 140.52 26.1327 139C26.1327 137.507 26.626 136.253 27.6127 135.24C28.586 134.227 29.8527 133.72 31.4127 133.72C32.8927 133.72 34.0993 134.227 35.0327 135.24C35.9927 136.253 36.4727 137.507 36.4727 139C36.4727 139.28 36.4393 139.633 36.3727 140.06ZM28.7927 138.06H33.8927C33.746 137.407 33.446 136.907 32.9927 136.56C32.5527 136.213 32.026 136.04 31.4127 136.04C30.7193 136.04 30.146 136.22 29.6927 136.58C29.2393 136.927 28.9393 137.42 28.7927 138.06ZM45.7956 135.18V134H48.3756V144H45.7956V142.82C45.0223 143.793 43.9356 144.28 42.5356 144.28C41.2023 144.28 40.0556 143.773 39.0956 142.76C38.149 141.733 37.6756 140.48 37.6756 139C37.6756 137.533 38.149 136.287 39.0956 135.26C40.0556 134.233 41.2023 133.72 42.5356 133.72C43.9356 133.72 45.0223 134.207 45.7956 135.18ZM41.0356 141.04C41.5556 141.56 42.2156 141.82 43.0156 141.82C43.8156 141.82 44.4756 141.56 44.9956 141.04C45.529 140.507 45.7956 139.827 45.7956 139C45.7956 138.173 45.529 137.5 44.9956 136.98C44.4756 136.447 43.8156 136.18 43.0156 136.18C42.2156 136.18 41.5556 136.447 41.0356 136.98C40.5156 137.5 40.2556 138.173 40.2556 139C40.2556 139.827 40.5156 140.507 41.0356 141.04ZM58.3752 135.24V134H60.8952V143.52C60.8952 145.053 60.3818 146.233 59.3552 147.06C58.3418 147.873 57.1152 148.28 55.6752 148.28C53.4085 148.28 51.8285 147.467 50.9352 145.84L53.1352 144.58C53.6285 145.513 54.5018 145.98 55.7552 145.98C56.5685 145.98 57.2085 145.767 57.6752 145.34C58.1418 144.913 58.3752 144.307 58.3752 143.52V142.44C57.6152 143.453 56.5485 143.96 55.1752 143.96C53.7618 143.96 52.5752 143.467 51.6152 142.48C50.6685 141.467 50.1952 140.253 50.1952 138.84C50.1952 137.427 50.6752 136.22 51.6352 135.22C52.5952 134.22 53.7752 133.72 55.1752 133.72C56.5485 133.72 57.6152 134.227 58.3752 135.24ZM57.5752 140.82C58.1085 140.3 58.3752 139.64 58.3752 138.84C58.3752 138.04 58.1085 137.393 57.5752 136.9C57.0552 136.38 56.3885 136.12 55.5752 136.12C54.7752 136.12 54.1018 136.38 53.5552 136.9C53.0352 137.393 52.7752 138.04 52.7752 138.84C52.7752 139.64 53.0352 140.3 53.5552 140.82C54.0885 141.327 54.7618 141.58 55.5752 141.58C56.3885 141.58 57.0552 141.327 57.5752 140.82ZM69.8347 139.4V134H72.4147V144H69.8347V142.88C69.2214 143.813 68.228 144.28 66.8547 144.28C65.7614 144.28 64.8547 143.913 64.1347 143.18C63.428 142.433 63.0747 141.42 63.0747 140.14V134H65.6547V139.82C65.6547 140.473 65.828 140.98 66.1747 141.34C66.5347 141.7 67.0214 141.88 67.6347 141.88C68.3147 141.88 68.848 141.673 69.2347 141.26C69.6347 140.833 69.8347 140.213 69.8347 139.4ZM84.4977 140.06H76.9577C77.291 141.313 78.231 141.94 79.7777 141.94C80.7643 141.94 81.511 141.607 82.0177 140.94L84.0977 142.14C83.111 143.567 81.6577 144.28 79.7377 144.28C78.0843 144.28 76.7577 143.78 75.7577 142.78C74.7577 141.78 74.2577 140.52 74.2577 139C74.2577 137.507 74.751 136.253 75.7377 135.24C76.711 134.227 77.9777 133.72 79.5377 133.72C81.0177 133.72 82.2243 134.227 83.1577 135.24C84.1177 136.253 84.5977 137.507 84.5977 139C84.5977 139.28 84.5643 139.633 84.4977 140.06ZM76.9177 138.06H82.0177C81.871 137.407 81.571 136.907 81.1177 136.56C80.6777 136.213 80.151 136.04 79.5377 136.04C78.8443 136.04 78.271 136.22 77.8177 136.58C77.3643 136.927 77.0643 137.42 76.9177 138.06Z" fill="white"/>
<path d="M19.25 116C19.8767 116 20.3967 116.207 20.81 116.62C21.2233 117.033 21.43 117.55 21.43 118.17C21.43 118.79 21.2233 119.307 20.81 119.72C20.3967 120.127 19.8767 120.33 19.25 120.33H17.4V123H16.87V116H19.25ZM19.25 119.83C19.73 119.83 20.1233 119.673 20.43 119.36C20.7433 119.047 20.9 118.65 20.9 118.17C20.9 117.683 20.7433 117.283 20.43 116.97C20.1233 116.657 19.73 116.5 19.25 116.5H17.4V119.83H19.25ZM24.9291 117.89C25.5225 117.89 25.9925 118.073 26.3391 118.44C26.6925 118.8 26.8691 119.283 26.8691 119.89V123H26.3591V119.89C26.3591 119.423 26.2291 119.053 25.9691 118.78C25.7158 118.507 25.3558 118.37 24.8891 118.37C24.3758 118.37 23.9558 118.54 23.6291 118.88C23.3025 119.22 23.1391 119.713 23.1391 120.36V123H22.6391V116H23.1391V118.95C23.4991 118.243 24.0958 117.89 24.9291 117.89ZM32.6837 118H33.1937V123H32.6837V121.87C32.4703 122.257 32.177 122.56 31.8037 122.78C31.4303 123 31.007 123.11 30.5337 123.11C29.8203 123.11 29.2103 122.86 28.7037 122.36C28.197 121.853 27.9437 121.233 27.9437 120.5C27.9437 119.767 28.197 119.15 28.7037 118.65C29.2103 118.143 29.8203 117.89 30.5337 117.89C31.007 117.89 31.4303 118 31.8037 118.22C32.177 118.44 32.4703 118.743 32.6837 119.13V118ZM29.0637 122.01C29.477 122.423 29.9803 122.63 30.5737 122.63C31.167 122.63 31.667 122.423 32.0737 122.01C32.4803 121.597 32.6837 121.093 32.6837 120.5C32.6837 119.907 32.4803 119.403 32.0737 118.99C31.667 118.577 31.167 118.37 30.5737 118.37C29.9803 118.37 29.477 118.577 29.0637 118.99C28.657 119.403 28.4537 119.907 28.4537 120.5C28.4537 121.093 28.657 121.597 29.0637 122.01ZM35.069 119.31C35.069 119.557 35.1723 119.75 35.379 119.89C35.5857 120.03 35.839 120.137 36.139 120.21C36.439 120.277 36.7357 120.353 37.029 120.44C37.329 120.527 37.5823 120.673 37.789 120.88C37.9957 121.08 38.099 121.35 38.099 121.69C38.099 122.103 37.9323 122.443 37.599 122.71C37.2723 122.977 36.8423 123.11 36.309 123.11C35.829 123.11 35.4223 123.01 35.089 122.81C34.7623 122.603 34.5357 122.333 34.409 122L34.839 121.75C34.9323 122.023 35.1057 122.24 35.359 122.4C35.619 122.553 35.9357 122.63 36.309 122.63C36.6823 122.63 36.989 122.55 37.229 122.39C37.4757 122.223 37.599 121.99 37.599 121.69C37.599 121.443 37.4957 121.247 37.289 121.1C37.0823 120.953 36.829 120.847 36.529 120.78C36.229 120.707 35.929 120.627 35.629 120.54C35.3357 120.453 35.0857 120.31 34.879 120.11C34.6723 119.91 34.569 119.643 34.569 119.31C34.569 118.91 34.7257 118.573 35.039 118.3C35.359 118.027 35.769 117.89 36.269 117.89C36.669 117.89 37.0157 117.98 37.309 118.16C37.609 118.34 37.829 118.583 37.969 118.89L37.549 119.13C37.449 118.883 37.2823 118.697 37.049 118.57C36.8157 118.437 36.5557 118.37 36.269 118.37C35.929 118.37 35.6423 118.457 35.409 118.63C35.1823 118.797 35.069 119.023 35.069 119.31ZM41.4126 117.89C42.1459 117.89 42.7392 118.15 43.1926 118.67C43.6526 119.19 43.8826 119.807 43.8826 120.52C43.8826 120.547 43.8792 120.587 43.8726 120.64C43.8726 120.693 43.8726 120.733 43.8726 120.76H39.3426C39.4026 121.32 39.6259 121.773 40.0126 122.12C40.4059 122.46 40.8892 122.63 41.4626 122.63C41.8626 122.63 42.2126 122.547 42.5126 122.38C42.8126 122.213 43.0392 121.993 43.1926 121.72L43.6326 121.98C43.4259 122.327 43.1326 122.603 42.7526 122.81C42.3726 123.01 41.9392 123.11 41.4526 123.11C40.6859 123.11 40.0559 122.867 39.5626 122.38C39.0692 121.887 38.8226 121.26 38.8226 120.5C38.8226 119.753 39.0626 119.133 39.5426 118.64C40.0292 118.14 40.6526 117.89 41.4126 117.89ZM41.4126 118.37C40.8459 118.37 40.3726 118.547 39.9926 118.9C39.6126 119.253 39.3959 119.71 39.3426 120.27H43.3626C43.3092 119.677 43.0959 119.213 42.7226 118.88C42.3559 118.54 41.9192 118.37 41.4126 118.37ZM53.5873 122.06C52.8873 122.76 52.0339 123.11 51.0273 123.11C50.0206 123.11 49.1673 122.76 48.4673 122.06C47.7673 121.353 47.4173 120.5 47.4173 119.5C47.4173 118.5 47.7673 117.65 48.4673 116.95C49.1673 116.243 50.0206 115.89 51.0273 115.89C52.0339 115.89 52.8873 116.243 53.5873 116.95C54.2873 117.65 54.6373 118.5 54.6373 119.5C54.6373 120.5 54.2873 121.353 53.5873 122.06ZM48.8373 121.7C49.4373 122.3 50.1673 122.6 51.0273 122.6C51.8873 122.6 52.6139 122.3 53.2073 121.7C53.8073 121.093 54.1073 120.36 54.1073 119.5C54.1073 118.64 53.8073 117.91 53.2073 117.31C52.6139 116.703 51.8873 116.4 51.0273 116.4C50.1673 116.4 49.4373 116.703 48.8373 117.31C48.2439 117.91 47.9473 118.64 47.9473 119.5C47.9473 120.36 48.2439 121.093 48.8373 121.7ZM58.1713 117.89C58.7647 117.89 59.2347 118.073 59.5813 118.44C59.9347 118.8 60.1113 119.283 60.1113 119.89V123H59.6013V119.89C59.6013 119.423 59.4713 119.053 59.2113 118.78C58.958 118.507 58.598 118.37 58.1313 118.37C57.618 118.37 57.198 118.54 56.8713 118.88C56.5447 119.22 56.3813 119.713 56.3813 120.36V123H55.8813V118H56.3813V118.95C56.7413 118.243 57.338 117.89 58.1713 117.89ZM63.7759 117.89C64.5092 117.89 65.1025 118.15 65.5559 118.67C66.0159 119.19 66.2459 119.807 66.2459 120.52C66.2459 120.547 66.2425 120.587 66.2359 120.64C66.2359 120.693 66.2359 120.733 66.2359 120.76H61.7059C61.7659 121.32 61.9892 121.773 62.3759 122.12C62.7692 122.46 63.2525 122.63 63.8259 122.63C64.2259 122.63 64.5759 122.547 64.8759 122.38C65.1759 122.213 65.4025 121.993 65.5559 121.72L65.9959 121.98C65.7892 122.327 65.4959 122.603 65.1159 122.81C64.7359 123.01 64.3025 123.11 63.8159 123.11C63.0492 123.11 62.4192 122.867 61.9259 122.38C61.4325 121.887 61.1859 121.26 61.1859 120.5C61.1859 119.753 61.4259 119.133 61.9059 118.64C62.3925 118.14 63.0159 117.89 63.7759 117.89ZM63.7759 118.37C63.2092 118.37 62.7359 118.547 62.3559 118.9C61.9759 119.253 61.7592 119.71 61.7059 120.27H65.7259C65.6725 119.677 65.4592 119.213 65.0859 118.88C64.7192 118.54 64.2825 118.37 63.7759 118.37Z" fill="white"/>
<rect x="108" y="14" width="44" height="44" rx="11" fill="white"/>
<path d="M125 41.0001L135 31.0001" stroke="black" stroke-width="2" stroke-linecap="round" stroke-linejoin="round"/>
<path d="M125 31.0001H135V41.0001" stroke="black" stroke-width="2" stroke-linecap="round" stroke-linejoin="round"/>
<defs>
<linearGradient id="paint0_linear_43_21875" x1="153.346" y1="33.103" x2="137.785" y2="197.611" gradientUnits="userSpaceOnUse">
<stop stop-color="#FE8245"/>
<stop offset="1" stop-color="#FE5704"/>
</linearGradient>
<linearGradient id="paint1_linear_43_21875" x1="118.332" y1="29.7908" x2="102.77" y2="194.299" gradientUnits="userSpaceOnUse">
<stop stop-color="#FE8245"/>
<stop offset="1" stop-color="#FE5704"/>
</linearGradient>
<linearGradient id="paint2_linear_43_21875" x1="82.7413" y1="26.4242" x2="67.1797" y2="190.933" gradientUnits="userSpaceOnUse">
<stop stop-color="#FE8245"/>
<stop offset="1" stop-color="#FE5704"/>
</linearGradient>
<linearGradient id="paint3_linear_43_21875" x1="153.965" y1="33.1616" x2="138.404" y2="197.67" gradientUnits="userSpaceOnUse">
<stop stop-color="#FE8245"/>
<stop offset="1" stop-color="#FE5704"/>
</linearGradient>
<linearGradient id="paint4_linear_43_21875" x1="83.5153" y1="26.4974" x2="67.9537" y2="191.006" gradientUnits="userSpaceOnUse">
<stop stop-color="#FE8245"/>
<stop offset="1" stop-color="#FE5704"/>
</linearGradient>
<linearGradient id="paint5_linear_43_21875" x1="119.133" y1="29.8666" x2="103.572" y2="194.375" gradientUnits="userSpaceOnUse">
<stop stop-color="#FE8245"/>
<stop offset="1" stop-color="#FE5704"/>
</linearGradient>
<linearGradient id="paint6_linear_43_21875" x1="154.894" y1="33.2494" x2="139.333" y2="197.758" gradientUnits="userSpaceOnUse">
<stop stop-color="#FE8245"/>
<stop offset="1" stop-color="#FE5704"/>
</linearGradient>
<linearGradient id="paint7_linear_43_21875" x1="70.4081" y1="46.9963" x2="243.364" y2="41.2163" gradientUnits="userSpaceOnUse">
<stop stop-color="#FE5704"/>
<stop offset="1"/>
</linearGradient>
<linearGradient id="paint8_linear_43_21875" x1="71.3278" y1="74.5165" x2="244.284" y2="68.7365" gradientUnits="userSpaceOnUse">
<stop stop-color="#FE5704"/>
<stop offset="1"/>
</linearGradient>
<linearGradient id="paint9_linear_43_21875" x1="71.2819" y1="73.1412" x2="244.238" y2="67.3612" gradientUnits="userSpaceOnUse">
<stop stop-color="#FE5704"/>
<stop offset="1"/>
</linearGradient>
<linearGradient id="paint10_linear_43_21875" x1="72.2693" y1="102.689" x2="245.225" y2="96.9091" gradientUnits="userSpaceOnUse">
<stop stop-color="#FE5704"/>
<stop offset="1"/>
</linearGradient>
<linearGradient id="paint11_linear_43_21875" x1="72.194" y1="100.435" x2="245.15" y2="94.6554" gradientUnits="userSpaceOnUse">
<stop stop-color="#FE5704"/>
<stop offset="1"/>
</linearGradient>
<linearGradient id="paint12_linear_43_21875" x1="73.17" y1="129.64" x2="246.126" y2="123.86" gradientUnits="userSpaceOnUse">
<stop stop-color="#FE5704"/>
<stop offset="1"/>
</linearGradient>
<linearGradient id="paint13_linear_43_21875" x1="74.0902" y1="157.172" x2="247.046" y2="151.392" gradientUnits="userSpaceOnUse">
<stop stop-color="#FE5704"/>
<stop offset="1"/>
</linearGradient>
<linearGradient id="paint14_linear_43_21875" x1="74.9718" y1="183.555" x2="247.928" y2="177.775" gradientUnits="userSpaceOnUse">
<stop stop-color="#FE5704"/>
<stop offset="1"/>
</linearGradient>
<clipPath id="clip0_43_21875">
<rect width="167" height="167" fill="white"/>
</clipPath>
</defs>
</svg>
