<svg width="40" height="39" viewBox="0 0 40 39" fill="none" xmlns="http://www.w3.org/2000/svg">
<path d="M10 6.5C10 4.37868 10 3.31802 10.659 2.65901C11.318 2 12.3787 2 14.5 2C16.6213 2 17.682 2 18.341 2.65901C19 3.31802 19 4.37868 19 6.5C19 8.62132 19 9.68198 18.341 10.341C17.682 11 16.6213 11 14.5 11C12.3787 11 11.318 11 10.659 10.341C10 9.68198 10 8.62132 10 6.5Z" fill="#FE5704"/>
<path d="M21 17.5C21 15.3787 21 14.318 21.659 13.659C22.318 13 23.3787 13 25.5 13C27.6213 13 28.682 13 29.341 13.659C30 14.318 30 15.3787 30 17.5C30 19.6213 30 20.682 29.341 21.341C28.682 22 27.6213 22 25.5 22C23.3787 22 22.318 22 21.659 21.341C21 20.682 21 19.6213 21 17.5Z" fill="#FE5704"/>
<path d="M10 17.5C10 15.3787 10 14.318 10.659 13.659C11.318 13 12.3787 13 14.5 13C16.6213 13 17.682 13 18.341 13.659C19 14.318 19 15.3787 19 17.5C19 19.6213 19 20.682 18.341 21.341C17.682 22 16.6213 22 14.5 22C12.3787 22 11.318 22 10.659 21.341C10 20.682 10 19.6213 10 17.5Z" fill="#FE5704"/>
<path d="M21 6.5C21 4.37868 21 3.31802 21.659 2.65901C22.318 2 23.3787 2 25.5 2C27.6213 2 28.682 2 29.341 2.65901C30 3.31802 30 4.37868 30 6.5C30 8.62132 30 9.68198 29.341 10.341C28.682 11 27.6213 11 25.5 11C23.3787 11 22.318 11 21.659 10.341C21 9.68198 21 8.62132 21 6.5Z" fill="#FE5704"/>
<path d="M1.16867 26.6H4.30067C5.10067 26.6 5.78067 26.872 6.34067 27.416C6.89267 27.96 7.16867 28.628 7.16867 29.42C7.16867 30.212 6.89267 30.88 6.34067 31.424C5.78067 31.968 5.10067 32.24 4.30067 32.24H2.82467V35H1.16867V26.6ZM2.82467 30.692H4.30067C4.65267 30.692 4.94467 30.572 5.17667 30.332C5.40867 30.084 5.52467 29.78 5.52467 29.42C5.52467 29.052 5.40867 28.748 5.17667 28.508C4.94467 28.268 4.65267 28.148 4.30067 28.148H2.82467V30.692ZM11.5108 28.832C12.1748 28.832 12.7148 29.052 13.1308 29.492C13.5628 29.94 13.7788 30.548 13.7788 31.316V35H12.2308V31.508C12.2308 31.116 12.1228 30.812 11.9068 30.596C11.6988 30.38 11.4108 30.272 11.0428 30.272C10.6348 30.272 10.3108 30.4 10.0708 30.656C9.8388 30.904 9.7228 31.272 9.7228 31.76V35H8.1748V26.6H9.7228V29.672C10.0908 29.112 10.6868 28.832 11.5108 28.832ZM19.6606 29.708V29H21.2086V35H19.6606V34.292C19.1966 34.876 18.5446 35.168 17.7046 35.168C16.9046 35.168 16.2166 34.864 15.6406 34.256C15.0726 33.64 14.7886 32.888 14.7886 32C14.7886 31.12 15.0726 30.372 15.6406 29.756C16.2166 29.14 16.9046 28.832 17.7046 28.832C18.5446 28.832 19.1966 29.124 19.6606 29.708ZM16.8046 33.224C17.1166 33.536 17.5126 33.692 17.9926 33.692C18.4726 33.692 18.8686 33.536 19.1806 33.224C19.5006 32.904 19.6606 32.496 19.6606 32C19.6606 31.504 19.5006 31.1 19.1806 30.788C18.8686 30.468 18.4726 30.308 17.9926 30.308C17.5126 30.308 17.1166 30.468 16.8046 30.788C16.4926 31.1 16.3366 31.504 16.3366 32C16.3366 32.496 16.4926 32.904 16.8046 33.224ZM23.9934 30.704C23.9934 30.96 24.3574 31.18 25.0854 31.364C25.3414 31.42 25.5734 31.488 25.7814 31.568C25.9894 31.64 26.1974 31.748 26.4054 31.892C26.6214 32.028 26.7894 32.212 26.9094 32.444C27.0294 32.676 27.0894 32.944 27.0894 33.248C27.0894 33.864 26.8574 34.34 26.3934 34.676C25.9294 35.004 25.3574 35.168 24.6774 35.168C23.4454 35.168 22.6054 34.692 22.1574 33.74L23.5014 32.984C23.6854 33.504 24.0774 33.764 24.6774 33.764C25.2294 33.764 25.5054 33.592 25.5054 33.248C25.5054 32.992 25.1414 32.772 24.4134 32.588C24.1414 32.516 23.9094 32.444 23.7174 32.372C23.5254 32.3 23.3174 32.196 23.0934 32.06C22.8694 31.916 22.6974 31.736 22.5774 31.52C22.4654 31.296 22.4094 31.036 22.4094 30.74C22.4094 30.148 22.6254 29.684 23.0574 29.348C23.4974 29.004 24.0414 28.832 24.6894 28.832C25.1774 28.832 25.6214 28.944 26.0214 29.168C26.4214 29.384 26.7374 29.696 26.9694 30.104L25.6494 30.824C25.4574 30.416 25.1374 30.212 24.6894 30.212C24.4894 30.212 24.3214 30.26 24.1854 30.356C24.0574 30.444 23.9934 30.56 23.9934 30.704ZM33.8349 32.636H29.3109C29.5109 33.388 30.0749 33.764 31.0029 33.764C31.5949 33.764 32.0429 33.564 32.3469 33.164L33.5949 33.884C33.0029 34.74 32.1309 35.168 30.9789 35.168C29.9869 35.168 29.1909 34.868 28.5909 34.268C27.9909 33.668 27.6909 32.912 27.6909 32C27.6909 31.104 27.9869 30.352 28.5789 29.744C29.1629 29.136 29.9229 28.832 30.8589 28.832C31.7469 28.832 32.4709 29.136 33.0309 29.744C33.6069 30.352 33.8949 31.104 33.8949 32C33.8949 32.168 33.8749 32.38 33.8349 32.636ZM29.2869 31.436H32.3469C32.2589 31.044 32.0789 30.744 31.8069 30.536C31.5429 30.328 31.2269 30.224 30.8589 30.224C30.4429 30.224 30.0989 30.332 29.8269 30.548C29.5549 30.756 29.3749 31.052 29.2869 31.436ZM36.1692 30.704C36.1692 30.96 36.5332 31.18 37.2612 31.364C37.5172 31.42 37.7492 31.488 37.9572 31.568C38.1652 31.64 38.3732 31.748 38.5812 31.892C38.7972 32.028 38.9652 32.212 39.0852 32.444C39.2052 32.676 39.2652 32.944 39.2652 33.248C39.2652 33.864 39.0332 34.34 38.5692 34.676C38.1052 35.004 37.5332 35.168 36.8532 35.168C35.6212 35.168 34.7812 34.692 34.3332 33.74L35.6772 32.984C35.8612 33.504 36.2532 33.764 36.8532 33.764C37.4052 33.764 37.6812 33.592 37.6812 33.248C37.6812 32.992 37.3172 32.772 36.5892 32.588C36.3172 32.516 36.0852 32.444 35.8932 32.372C35.7012 32.3 35.4932 32.196 35.2692 32.06C35.0452 31.916 34.8732 31.736 34.7532 31.52C34.6412 31.296 34.5852 31.036 34.5852 30.74C34.5852 30.148 34.8012 29.684 35.2332 29.348C35.6732 29.004 36.2172 28.832 36.8652 28.832C37.3532 28.832 37.7972 28.944 38.1972 29.168C38.5972 29.384 38.9132 29.696 39.1452 30.104L37.8252 30.824C37.6332 30.416 37.3132 30.212 36.8652 30.212C36.6652 30.212 36.4972 30.26 36.3612 30.356C36.2332 30.444 36.1692 30.56 36.1692 30.704Z" fill="#FE5704"/>
</svg>
