<svg width="40" height="38" viewBox="0 0 40 38" fill="none" xmlns="http://www.w3.org/2000/svg">
<path d="M10.5 6.5C10.5 4.61438 10.5 3.67157 11.0858 3.08579C11.6716 2.5 12.6144 2.5 14.5 2.5C16.3856 2.5 17.3284 2.5 17.9142 3.08579C18.5 3.67157 18.5 4.61438 18.5 6.5C18.5 8.38562 18.5 9.32843 17.9142 9.91421C17.3284 10.5 16.3856 10.5 14.5 10.5C12.6144 10.5 11.6716 10.5 11.0858 9.91421C10.5 9.32843 10.5 8.38562 10.5 6.5Z" stroke="black" stroke-width="1.5"/>
<path d="M21.5 17.5C21.5 15.6144 21.5 14.6716 22.0858 14.0858C22.6716 13.5 23.6144 13.5 25.5 13.5C27.3856 13.5 28.3284 13.5 28.9142 14.0858C29.5 14.6716 29.5 15.6144 29.5 17.5C29.5 19.3856 29.5 20.3284 28.9142 20.9142C28.3284 21.5 27.3856 21.5 25.5 21.5C23.6144 21.5 22.6716 21.5 22.0858 20.9142C21.5 20.3284 21.5 19.3856 21.5 17.5Z" stroke="black" stroke-width="1.5"/>
<path d="M10.5 17.5C10.5 15.6144 10.5 14.6716 11.0858 14.0858C11.6716 13.5 12.6144 13.5 14.5 13.5C16.3856 13.5 17.3284 13.5 17.9142 14.0858C18.5 14.6716 18.5 15.6144 18.5 17.5C18.5 19.3856 18.5 20.3284 17.9142 20.9142C17.3284 21.5 16.3856 21.5 14.5 21.5C12.6144 21.5 11.6716 21.5 11.0858 20.9142C10.5 20.3284 10.5 19.3856 10.5 17.5Z" stroke="black" stroke-width="1.5"/>
<path d="M21.5 6.5C21.5 4.61438 21.5 3.67157 22.0858 3.08579C22.6716 2.5 23.6144 2.5 25.5 2.5C27.3856 2.5 28.3284 2.5 28.9142 3.08579C29.5 3.67157 29.5 4.61438 29.5 6.5C29.5 8.38562 29.5 9.32843 28.9142 9.91421C28.3284 10.5 27.3856 10.5 25.5 10.5C23.6144 10.5 22.6716 10.5 22.0858 9.91421C21.5 9.32843 21.5 8.38562 21.5 6.5Z" stroke="black" stroke-width="1.5"/>
<path d="M4.30039 26.6C5.05239 26.6 5.67639 26.848 6.17239 27.344C6.66839 27.84 6.91639 28.46 6.91639 29.204C6.91639 29.948 6.66839 30.568 6.17239 31.064C5.67639 31.552 5.05239 31.796 4.30039 31.796H2.08039V35H1.44439V26.6H4.30039ZM4.30039 31.196C4.87639 31.196 5.34839 31.008 5.71639 30.632C6.09239 30.256 6.28039 29.78 6.28039 29.204C6.28039 28.62 6.09239 28.14 5.71639 27.764C5.34839 27.388 4.87639 27.2 4.30039 27.2H2.08039V31.196H4.30039ZM11.1154 28.868C11.8274 28.868 12.3914 29.088 12.8074 29.528C13.2314 29.96 13.4434 30.54 13.4434 31.268V35H12.8314V31.268C12.8314 30.708 12.6754 30.264 12.3634 29.936C12.0594 29.608 11.6274 29.444 11.0674 29.444C10.4514 29.444 9.94736 29.648 9.55536 30.056C9.16336 30.464 8.96736 31.056 8.96736 31.832V35H8.36736V26.6H8.96736V30.14C9.39936 29.292 10.1154 28.868 11.1154 28.868ZM20.4208 29H21.0328V35H20.4208V33.644C20.1648 34.108 19.8128 34.472 19.3648 34.736C18.9168 35 18.4088 35.132 17.8408 35.132C16.9848 35.132 16.2528 34.832 15.6448 34.232C15.0368 33.624 14.7328 32.88 14.7328 32C14.7328 31.12 15.0368 30.38 15.6448 29.78C16.2528 29.172 16.9848 28.868 17.8408 28.868C18.4088 28.868 18.9168 29 19.3648 29.264C19.8128 29.528 20.1648 29.892 20.4208 30.356V29ZM16.0768 33.812C16.5728 34.308 17.1768 34.556 17.8888 34.556C18.6008 34.556 19.2008 34.308 19.6888 33.812C20.1768 33.316 20.4208 32.712 20.4208 32C20.4208 31.288 20.1768 30.684 19.6888 30.188C19.2008 29.692 18.6008 29.444 17.8888 29.444C17.1768 29.444 16.5728 29.692 16.0768 30.188C15.5888 30.684 15.3448 31.288 15.3448 32C15.3448 32.712 15.5888 33.316 16.0768 33.812ZM23.2832 30.572C23.2832 30.868 23.4072 31.1 23.6552 31.268C23.9032 31.436 24.2072 31.564 24.5672 31.652C24.9272 31.732 25.2832 31.824 25.6352 31.928C25.9952 32.032 26.2992 32.208 26.5472 32.456C26.7952 32.696 26.9192 33.02 26.9192 33.428C26.9192 33.924 26.7192 34.332 26.3192 34.652C25.9272 34.972 25.4112 35.132 24.7712 35.132C24.1952 35.132 23.7072 35.012 23.3072 34.772C22.9152 34.524 22.6432 34.2 22.4912 33.8L23.0072 33.5C23.1192 33.828 23.3272 34.088 23.6312 34.28C23.9432 34.464 24.3232 34.556 24.7712 34.556C25.2192 34.556 25.5872 34.46 25.8752 34.268C26.1712 34.068 26.3192 33.788 26.3192 33.428C26.3192 33.132 26.1952 32.896 25.9472 32.72C25.6992 32.544 25.3952 32.416 25.0352 32.336C24.6752 32.248 24.3152 32.152 23.9552 32.048C23.6032 31.944 23.3032 31.772 23.0552 31.532C22.8072 31.292 22.6832 30.972 22.6832 30.572C22.6832 30.092 22.8712 29.688 23.2472 29.36C23.6312 29.032 24.1232 28.868 24.7232 28.868C25.2032 28.868 25.6192 28.976 25.9712 29.192C26.3312 29.408 26.5952 29.7 26.7632 30.068L26.2592 30.356C26.1392 30.06 25.9392 29.836 25.6592 29.684C25.3792 29.524 25.0672 29.444 24.7232 29.444C24.3152 29.444 23.9712 29.548 23.6912 29.756C23.4192 29.956 23.2832 30.228 23.2832 30.572ZM30.8955 28.868C31.7755 28.868 32.4875 29.18 33.0315 29.804C33.5835 30.428 33.8595 31.168 33.8595 32.024C33.8595 32.056 33.8555 32.104 33.8475 32.168C33.8475 32.232 33.8475 32.28 33.8475 32.312H28.4115C28.4835 32.984 28.7515 33.528 29.2155 33.944C29.6875 34.352 30.2675 34.556 30.9555 34.556C31.4355 34.556 31.8555 34.456 32.2155 34.256C32.5755 34.056 32.8475 33.792 33.0315 33.464L33.5595 33.776C33.3115 34.192 32.9595 34.524 32.5035 34.772C32.0475 35.012 31.5275 35.132 30.9435 35.132C30.0235 35.132 29.2675 34.84 28.6755 34.256C28.0835 33.664 27.7875 32.912 27.7875 32C27.7875 31.104 28.0755 30.36 28.6515 29.768C29.2355 29.168 29.9835 28.868 30.8955 28.868ZM30.8955 29.444C30.2155 29.444 29.6475 29.656 29.1915 30.08C28.7355 30.504 28.4755 31.052 28.4115 31.724H33.2355C33.1715 31.012 32.9155 30.456 32.4675 30.056C32.0275 29.648 31.5035 29.444 30.8955 29.444ZM35.4355 30.572C35.4355 30.868 35.5595 31.1 35.8075 31.268C36.0555 31.436 36.3595 31.564 36.7195 31.652C37.0795 31.732 37.4355 31.824 37.7875 31.928C38.1475 32.032 38.4515 32.208 38.6995 32.456C38.9475 32.696 39.0715 33.02 39.0715 33.428C39.0715 33.924 38.8715 34.332 38.4715 34.652C38.0795 34.972 37.5635 35.132 36.9235 35.132C36.3475 35.132 35.8595 35.012 35.4595 34.772C35.0675 34.524 34.7955 34.2 34.6435 33.8L35.1595 33.5C35.2715 33.828 35.4795 34.088 35.7835 34.28C36.0955 34.464 36.4755 34.556 36.9235 34.556C37.3715 34.556 37.7395 34.46 38.0275 34.268C38.3235 34.068 38.4715 33.788 38.4715 33.428C38.4715 33.132 38.3475 32.896 38.0995 32.72C37.8515 32.544 37.5475 32.416 37.1875 32.336C36.8275 32.248 36.4675 32.152 36.1075 32.048C35.7555 31.944 35.4555 31.772 35.2075 31.532C34.9595 31.292 34.8355 30.972 34.8355 30.572C34.8355 30.092 35.0235 29.688 35.3995 29.36C35.7835 29.032 36.2755 28.868 36.8755 28.868C37.3555 28.868 37.7715 28.976 38.1235 29.192C38.4835 29.408 38.7475 29.7 38.9155 30.068L38.4115 30.356C38.2915 30.06 38.0915 29.836 37.8115 29.684C37.5315 29.524 37.2195 29.444 36.8755 29.444C36.4675 29.444 36.1235 29.548 35.8435 29.756C35.5715 29.956 35.4355 30.228 35.4355 30.572Z" fill="black"/>
</svg>
