<svg width="225" height="308" viewBox="0 0 225 308" fill="none" xmlns="http://www.w3.org/2000/svg">
<g clip-path="url(#clip0_20_1045)">
<path d="M225 298.439V121.493H216.008V149.219H207.003V74.9266H197.997V112.43H189.044V27.4839H197.997V37.4633V46.7684V64.7449H207.003V46.7684H216.008V111.756H225V46.7684V37.4633V9.31862V0H216.008H90V9.31862H216.008V37.4633H207.003V18.1652H197.997H152.997V27.4839H180.039V112.43V121.749V148.639H189.044V121.749H197.997V149.219V158.538V205.306H207.003V158.538H216.008V298.439H189.005V289.336H197.997H207.003V280.017V214.827H197.997V280.017H189.005H180H107.997V289.336H180V298.439H144.005V307.757H216.008H225V298.439Z" fill="#000720"/>
<path d="M62.9974 289.336H99.0052V280.017H27.0026V242.77H17.9974V280.017V289.336H27.0026H54.0052V298.641H9.00521V205.306H17.9974V233.249H27.0026V205.306V195.988V158.74H17.9974V195.988H9.00521V121.735H0V195.988V205.306V298.641V307.96V308H9.00521V307.96H135V298.641H62.9974V289.336Z" fill="#000720"/>
<path d="M9.00521 92.8895H17.9974V149.219H27.0026V92.8895V83.5709V74.7108H17.9974V83.5709H9.00521V9.31862H54.0052V18.6238H45H35.9948H17.9974V27.9424V65.4057H27.0026V27.9424H35.9948V130.38H45V27.9424H54.0052H62.9974H144.005V18.6238H62.9974V9.31862H80.9948V0H62.9974H54.0052H0V0.6608V9.31862V83.5709V92.8895V112.417H9.00521V92.8895Z" fill="#000720"/>
<path d="M72.0027 168.059V251.873H80.9949V168.059V158.74H72.0027H62.9975H54.0053H45.0001H36.3207H35.9949V270.496H45.0001V168.059H54.0053V270.496H62.9975V168.059H72.0027Z" fill="#F25805"/>
<path d="M99.0444 158.74H90.0001V261.232H72.0027V270.537H99.0444V205.306H108.037V289.12H117.042V158.74H99.0444ZM108.037 195.988H99.0444V168.059H108.037V195.988Z" fill="#F25805"/>
<path d="M135 158.74H126.19H126.008V186.683H135V168.059H144.005V195.988H135H126.008V205.306V261.191V270.496H135H144.005H152.997V261.191V214.625H144.005V261.191H135V205.306H144.005H152.997V195.988V168.059V158.74H144.005H135Z" fill="#F25805"/>
<path d="M171.008 205.306H207.003V195.988H171.008V168.059H180V186.683H189.005V168.059V158.74H180H171.008H162.003V168.059V195.988V205.306V261.191V270.496H171.008H180H189.005V261.191V214.625H180V261.191H171.008V205.306Z" fill="#F25805"/>
<path d="M72.0027 93.0514V139.86V149.179H99.0444V93.3346V93.0514H72.0027ZM80.9949 139.86V102.41H90.0131V139.901L80.9949 139.86Z" fill="#F25805"/>
<path d="M62.9973 148.977V83.6114H99.0442V37.0048H54.0051V139.887H17.9973V149.206H62.9973V148.977ZM62.9973 46.3234H89.9999V74.2523H62.9973V46.3234Z" fill="#F25805"/>
<path d="M116.325 149.219H170.33V139.901H116.325V37.4633H107.32V149.219H107.672H116.325Z" fill="#F25805"/>
<path d="M170.226 130.38H170.33V37.0048H161.325V74.2523H134.231V37.0048H125.226V83.5709H125.76H134.231H161.325V121.075H134.231V111.554H152.333V102.235H125.33V102.41H125.226V121.075V130.353V130.393H170.226V130.38Z" fill="#F25805"/>
</g>
<defs>
<clipPath id="clip0_20_1045">
<rect width="225" height="308" fill="white"/>
</clipPath>
</defs>
</svg>
