<svg width="167" height="167" viewBox="0 0 167 167" fill="none" xmlns="http://www.w3.org/2000/svg">
<g clip-path="url(#clip0_43_21979)">
<path d="M10.1 0.0999451H157.1C162.6 0.0999451 167.1 4.59995 167.1 10.0999V157.1C167.1 162.6 162.6 167.1 157.1 167.1H10.1C4.59998 167.1 0.0999756 162.6 0.0999756 157.1V10.0999C0.0999756 4.49995 4.59998 0.0999451 10.1 0.0999451Z" fill="#FE5704"/>
<mask id="mask0_43_21979" style="mask-type:luminance" maskUnits="userSpaceOnUse" x="0" y="0" width="167" height="167">
<path d="M10 -6.10352e-05H157C162.5 -6.10352e-05 167 4.49994 167 9.99994V157C167 162.5 162.5 167 157 167H10C4.5 167 0 162.5 0 157V9.99994C0 4.49994 4.5 -6.10352e-05 10 -6.10352e-05Z" fill="white"/>
</mask>
<g mask="url(#mask0_43_21979)">
<path d="M149.9 33.2999L154.9 53.5999L155.9 42.0999L150.9 21.8999L149.9 33.2999Z" fill="url(#paint0_linear_43_21979)"/>
<path d="M109.2 91.0999L114.2 111.3L116.6 83.5L111.6 63.2L109.2 91.0999Z" fill="url(#paint1_linear_43_21979)"/>
<path d="M71.8 109.5L76.8 129.8L82.8 57.5999L77.8 37.2999L71.8 109.5Z" fill="url(#paint2_linear_43_21979)"/>
<path d="M143.9 105.5L148.9 125.8L152.6 81.4L147.6 61.2L143.9 105.5Z" fill="url(#paint3_linear_43_21979)"/>
<path d="M67.2001 165.3L72.2001 185.5L75.9001 141.2L70.9001 120.9L67.2001 165.3Z" fill="url(#paint4_linear_43_21979)"/>
<path d="M103.2 163.2L108.2 183.5L110.5 155.6L105.5 135.4L103.2 163.2Z" fill="url(#paint5_linear_43_21979)"/>
<path d="M138.3 172.7L143.3 192.9L144.3 181.5L139.3 161.2L138.3 172.7Z" fill="url(#paint6_linear_43_21979)"/>
<path d="M154.9 53.5999L149.9 33.2999L77.8 37.2999L82.8 57.5999L154.9 53.5999Z" fill="url(#paint7_linear_43_21979)"/>
<path d="M137.8 82.2999L132.8 61.9999L111.6 63.1999L116.6 83.4999L137.8 82.2999Z" fill="url(#paint8_linear_43_21979)"/>
<path d="M147.6 61.1999L152.6 81.3999L224.7 77.3999L219.7 57.1999L147.6 61.1999Z" fill="url(#paint9_linear_43_21979)"/>
<path d="M94.4 91.8999L99.4 112.2L114.2 111.3L109.2 91.0999L94.4 91.8999Z" fill="url(#paint10_linear_43_21979)"/>
<path d="M238.6 83.7999L166.5 87.8999L171.5 108.1L243.6 104.1L238.6 83.7999Z" fill="url(#paint11_linear_43_21979)"/>
<path d="M133.1 138L148 137.2L205.2 134L200.2 113.7L143 116.9L128.2 117.8L70.9 120.9L75.9 141.2L133.1 138Z" fill="url(#paint12_linear_43_21979)"/>
<path d="M130.8 165.9L166.9 163.9L161.9 143.6L125.8 145.6L130.8 165.9Z" fill="url(#paint13_linear_43_21979)"/>
<path d="M246.4 166.6L231.6 167.5L174.4 170.7L159.6 171.5L164.6 191.8L179.3 190.9L236.6 187.7L251.4 186.9L246.4 166.6Z" fill="url(#paint14_linear_43_21979)"/>
<path d="M105.5 135.4L90.8 136.2L88.4 164.1L67.2 165.3L70.9 120.9L128.2 117.8L143 116.9L200.2 113.7L197.9 141.6L212.7 140.8L215 112.9L216 101.5L201.2 102.3L143.9 105.5L147.6 61.1999L219.7 57.1999L220.7 45.6999L148.6 49.6999L133.8 50.5999L112.5 51.7999L97.7 52.5999L96.8 63.9999L94.4 91.8999L109.2 91.0999L111.6 63.1999L132.8 61.9999L129.1 106.3L71.8 109.5L77.8 37.2999L149.9 33.2999L150.9 21.8999L78.8 25.8999L64 26.6999L63 38.1999L57 110.3L56.1 121.8L52.4 166.1L51.4 177.5L66.2 176.7L87.5 175.5L102.3 174.7L138.3 172.7L139.3 161.2L103.2 163.2L105.5 135.4Z" fill="#FE5704"/>
<path d="M244.2 16.6999L172.1 20.6999L171.2 32.0999L243.3 28.0999L239.6 72.3999L167.5 76.3999L166.5 87.8999L238.6 83.7999L232.6 156L175.3 159.2L176.7 142.8L177.6 131.3L162.8 132.2L126.8 134.2L125.8 145.6L161.9 143.6L160.5 160L159.6 171.5L174.4 170.7L231.6 167.5L246.4 166.6L247.4 155.2L253.4 82.9999L254.4 71.5999L258.1 27.2999L259 15.7999L244.2 16.6999Z" fill="#FE5704"/>
</g>
<path d="M27.6 18.4999C27.6 19.7999 26.6 20.7999 25.3 20.7999H18C16.8 20.7999 15.7 19.8999 15.6 18.7999C15.5 17.3999 16.5 16.2999 17.9 16.2999H25.3C26.6 16.2999 27.6 17.2999 27.6 18.4999Z" fill="white"/>
<path d="M34.8 24.1999C34.7 25.3999 33.6001 26.1999 32.4001 26.1999H27.5V29.2999C27.5 30.5999 26.5001 31.5999 25.2001 31.5999H17.9C16.7 31.5999 15.6 30.6999 15.5 29.5999C15.4 28.1999 16.4 27.0999 17.8 27.0999H23V23.9999C23 22.6999 24 21.6999 25.3 21.6999H32.6C33.9 21.6999 35 22.7999 34.8 24.1999Z" fill="white"/>
</g>
<path d="M22.08 144.28C20.7067 144.28 19.5467 143.973 18.6 143.36C17.6533 142.747 16.98 141.9 16.58 140.82L18.94 139.44C19.4867 140.867 20.56 141.58 22.16 141.58C22.9067 141.58 23.4667 141.447 23.84 141.18C24.2133 140.913 24.4 140.553 24.4 140.1C24.4 139.607 24.18 139.227 23.74 138.96C23.3 138.68 22.5133 138.38 21.38 138.06C20.1533 137.687 19.1867 137.253 18.48 136.76C17.6 136.107 17.16 135.147 17.16 133.88C17.16 132.6 17.6067 131.593 18.5 130.86C19.3933 130.1 20.48 129.72 21.76 129.72C22.88 129.72 23.8733 129.993 24.74 130.54C25.6067 131.087 26.28 131.86 26.76 132.86L24.44 134.2C23.88 133 22.9867 132.4 21.76 132.4C21.2 132.4 20.7533 132.533 20.42 132.8C20.0867 133.053 19.92 133.387 19.92 133.8C19.92 134.24 20.1 134.6 20.46 134.88C20.86 135.16 21.5667 135.453 22.58 135.76L23.54 136.08C23.7133 136.133 24.0133 136.247 24.44 136.42C24.84 136.567 25.1333 136.707 25.32 136.84C25.9733 137.24 26.4133 137.653 26.64 138.08C26.9867 138.64 27.16 139.3 27.16 140.06C27.16 141.353 26.6867 142.38 25.74 143.14C24.7933 143.9 23.5733 144.28 22.08 144.28ZM38.8336 140.06H31.2936C31.6269 141.313 32.5669 141.94 34.1136 141.94C35.1003 141.94 35.8469 141.607 36.3536 140.94L38.4336 142.14C37.4469 143.567 35.9936 144.28 34.0736 144.28C32.4203 144.28 31.0936 143.78 30.0936 142.78C29.0936 141.78 28.5936 140.52 28.5936 139C28.5936 137.507 29.0869 136.253 30.0736 135.24C31.0469 134.227 32.3136 133.72 33.8736 133.72C35.3536 133.72 36.5603 134.227 37.4936 135.24C38.4536 136.253 38.9336 137.507 38.9336 139C38.9336 139.28 38.9003 139.633 38.8336 140.06ZM31.2536 138.06H36.3536C36.2069 137.407 35.9069 136.907 35.4536 136.56C35.0136 136.213 34.4869 136.04 33.8736 136.04C33.1803 136.04 32.6069 136.22 32.1536 136.58C31.7003 136.927 31.4003 137.42 31.2536 138.06ZM51.7947 133.72C52.9414 133.72 53.8547 134.093 54.5347 134.84C55.228 135.587 55.5747 136.587 55.5747 137.84V144H52.9947V138.02C52.9947 137.42 52.848 136.953 52.5547 136.62C52.2614 136.287 51.848 136.12 51.3147 136.12C50.728 136.12 50.268 136.313 49.9347 136.7C49.6147 137.087 49.4547 137.647 49.4547 138.38V144H46.8747V138.02C46.8747 137.42 46.728 136.953 46.4347 136.62C46.1414 136.287 45.728 136.12 45.1947 136.12C44.6214 136.12 44.1614 136.32 43.8147 136.72C43.4814 137.107 43.3147 137.66 43.3147 138.38V144H40.7347V134H43.3147V135.06C43.9147 134.167 44.8414 133.72 46.0947 133.72C47.3347 133.72 48.2414 134.2 48.8147 135.16C49.468 134.2 50.4614 133.72 51.7947 133.72ZM59.0459 132.8C58.6193 132.8 58.2459 132.647 57.9259 132.34C57.6193 132.02 57.4659 131.647 57.4659 131.22C57.4659 130.793 57.6193 130.42 57.9259 130.1C58.2459 129.78 58.6193 129.62 59.0459 129.62C59.4859 129.62 59.8593 129.78 60.1659 130.1C60.4859 130.42 60.6459 130.793 60.6459 131.22C60.6459 131.647 60.4859 132.02 60.1659 132.34C59.8593 132.647 59.4859 132.8 59.0459 132.8ZM60.3459 144H57.7659V134H60.3459V144ZM76.1873 130V132.64H70.5873V135.96H76.0273V138.6H70.5873V144H67.8273V130H76.1873ZM79.3584 132.8C78.9318 132.8 78.5584 132.647 78.2384 132.34C77.9318 132.02 77.7784 131.647 77.7784 131.22C77.7784 130.793 77.9318 130.42 78.2384 130.1C78.5584 129.78 78.9318 129.62 79.3584 129.62C79.7984 129.62 80.1718 129.78 80.4784 130.1C80.7984 130.42 80.9584 130.793 80.9584 131.22C80.9584 131.647 80.7984 132.02 80.4784 132.34C80.1718 132.647 79.7984 132.8 79.3584 132.8ZM80.6584 144H78.0784V134H80.6584V144ZM88.5798 133.72C89.6865 133.72 90.5865 134.087 91.2798 134.82C91.9998 135.567 92.3598 136.58 92.3598 137.86V144H89.7798V138.18C89.7798 137.527 89.5998 137.02 89.2398 136.66C88.8932 136.3 88.4132 136.12 87.7998 136.12C87.1198 136.12 86.5798 136.333 86.1798 136.76C85.7932 137.173 85.5998 137.787 85.5998 138.6V144H83.0198V134H85.5998V135.12C86.2132 134.187 87.2065 133.72 88.5798 133.72ZM102.163 135.18V134H104.743V144H102.163V142.82C101.389 143.793 100.303 144.28 98.9028 144.28C97.5695 144.28 96.4228 143.773 95.4628 142.76C94.5161 141.733 94.0428 140.48 94.0428 139C94.0428 137.533 94.5161 136.287 95.4628 135.26C96.4228 134.233 97.5695 133.72 98.9028 133.72C100.303 133.72 101.389 134.207 102.163 135.18ZM97.4028 141.04C97.9228 141.56 98.5828 141.82 99.3828 141.82C100.183 141.82 100.843 141.56 101.363 141.04C101.896 140.507 102.163 139.827 102.163 139C102.163 138.173 101.896 137.5 101.363 136.98C100.843 136.447 100.183 136.18 99.3828 136.18C98.5828 136.18 97.9228 136.447 97.4028 136.98C96.8828 137.5 96.6228 138.173 96.6228 139C96.6228 139.827 96.8828 140.507 97.4028 141.04ZM109.662 144H107.082V129.4H109.662V144ZM114.326 136.84C114.326 137.267 114.932 137.633 116.146 137.94C116.572 138.033 116.959 138.147 117.306 138.28C117.652 138.4 117.999 138.58 118.346 138.82C118.706 139.047 118.986 139.353 119.186 139.74C119.386 140.127 119.486 140.573 119.486 141.08C119.486 142.107 119.099 142.9 118.326 143.46C117.552 144.007 116.599 144.28 115.466 144.28C113.412 144.28 112.012 143.487 111.266 141.9L113.506 140.64C113.812 141.507 114.466 141.94 115.466 141.94C116.386 141.94 116.846 141.653 116.846 141.08C116.846 140.653 116.239 140.287 115.026 139.98C114.572 139.86 114.186 139.74 113.866 139.62C113.546 139.5 113.199 139.327 112.826 139.1C112.452 138.86 112.166 138.56 111.966 138.2C111.779 137.827 111.686 137.393 111.686 136.9C111.686 135.913 112.046 135.14 112.766 134.58C113.499 134.007 114.406 133.72 115.486 133.72C116.299 133.72 117.039 133.907 117.706 134.28C118.372 134.64 118.899 135.16 119.286 135.84L117.086 137.04C116.766 136.36 116.232 136.02 115.486 136.02C115.152 136.02 114.872 136.1 114.646 136.26C114.432 136.407 114.326 136.6 114.326 136.84Z" fill="white"/>
<path d="M19.25 116C19.8767 116 20.3967 116.207 20.81 116.62C21.2233 117.033 21.43 117.55 21.43 118.17C21.43 118.79 21.2233 119.307 20.81 119.72C20.3967 120.127 19.8767 120.33 19.25 120.33H17.4V123H16.87V116H19.25ZM19.25 119.83C19.73 119.83 20.1233 119.673 20.43 119.36C20.7433 119.047 20.9 118.65 20.9 118.17C20.9 117.683 20.7433 117.283 20.43 116.97C20.1233 116.657 19.73 116.5 19.25 116.5H17.4V119.83H19.25ZM24.9291 117.89C25.5225 117.89 25.9925 118.073 26.3391 118.44C26.6925 118.8 26.8691 119.283 26.8691 119.89V123H26.3591V119.89C26.3591 119.423 26.2291 119.053 25.9691 118.78C25.7158 118.507 25.3558 118.37 24.8891 118.37C24.3758 118.37 23.9558 118.54 23.6291 118.88C23.3025 119.22 23.1391 119.713 23.1391 120.36V123H22.6391V116H23.1391V118.95C23.4991 118.243 24.0958 117.89 24.9291 117.89ZM32.6837 118H33.1937V123H32.6837V121.87C32.4703 122.257 32.177 122.56 31.8037 122.78C31.4303 123 31.007 123.11 30.5337 123.11C29.8203 123.11 29.2103 122.86 28.7037 122.36C28.197 121.853 27.9437 121.233 27.9437 120.5C27.9437 119.767 28.197 119.15 28.7037 118.65C29.2103 118.143 29.8203 117.89 30.5337 117.89C31.007 117.89 31.4303 118 31.8037 118.22C32.177 118.44 32.4703 118.743 32.6837 119.13V118ZM29.0637 122.01C29.477 122.423 29.9803 122.63 30.5737 122.63C31.167 122.63 31.667 122.423 32.0737 122.01C32.4803 121.597 32.6837 121.093 32.6837 120.5C32.6837 119.907 32.4803 119.403 32.0737 118.99C31.667 118.577 31.167 118.37 30.5737 118.37C29.9803 118.37 29.477 118.577 29.0637 118.99C28.657 119.403 28.4537 119.907 28.4537 120.5C28.4537 121.093 28.657 121.597 29.0637 122.01ZM35.069 119.31C35.069 119.557 35.1723 119.75 35.379 119.89C35.5857 120.03 35.839 120.137 36.139 120.21C36.439 120.277 36.7357 120.353 37.029 120.44C37.329 120.527 37.5823 120.673 37.789 120.88C37.9957 121.08 38.099 121.35 38.099 121.69C38.099 122.103 37.9323 122.443 37.599 122.71C37.2723 122.977 36.8423 123.11 36.309 123.11C35.829 123.11 35.4223 123.01 35.089 122.81C34.7623 122.603 34.5357 122.333 34.409 122L34.839 121.75C34.9323 122.023 35.1057 122.24 35.359 122.4C35.619 122.553 35.9357 122.63 36.309 122.63C36.6823 122.63 36.989 122.55 37.229 122.39C37.4757 122.223 37.599 121.99 37.599 121.69C37.599 121.443 37.4957 121.247 37.289 121.1C37.0823 120.953 36.829 120.847 36.529 120.78C36.229 120.707 35.929 120.627 35.629 120.54C35.3357 120.453 35.0857 120.31 34.879 120.11C34.6723 119.91 34.569 119.643 34.569 119.31C34.569 118.91 34.7257 118.573 35.039 118.3C35.359 118.027 35.769 117.89 36.269 117.89C36.669 117.89 37.0157 117.98 37.309 118.16C37.609 118.34 37.829 118.583 37.969 118.89L37.549 119.13C37.449 118.883 37.2823 118.697 37.049 118.57C36.8157 118.437 36.5557 118.37 36.269 118.37C35.929 118.37 35.6423 118.457 35.409 118.63C35.1823 118.797 35.069 119.023 35.069 119.31ZM41.4126 117.89C42.1459 117.89 42.7392 118.15 43.1926 118.67C43.6526 119.19 43.8826 119.807 43.8826 120.52C43.8826 120.547 43.8792 120.587 43.8726 120.64C43.8726 120.693 43.8726 120.733 43.8726 120.76H39.3426C39.4026 121.32 39.6259 121.773 40.0126 122.12C40.4059 122.46 40.8892 122.63 41.4626 122.63C41.8626 122.63 42.2126 122.547 42.5126 122.38C42.8126 122.213 43.0392 121.993 43.1926 121.72L43.6326 121.98C43.4259 122.327 43.1326 122.603 42.7526 122.81C42.3726 123.01 41.9392 123.11 41.4526 123.11C40.6859 123.11 40.0559 122.867 39.5626 122.38C39.0692 121.887 38.8226 121.26 38.8226 120.5C38.8226 119.753 39.0626 119.133 39.5426 118.64C40.0292 118.14 40.6526 117.89 41.4126 117.89ZM41.4126 118.37C40.8459 118.37 40.3726 118.547 39.9926 118.9C39.6126 119.253 39.3959 119.71 39.3426 120.27H43.3626C43.3092 119.677 43.0959 119.213 42.7226 118.88C42.3559 118.54 41.9192 118.37 41.4126 118.37ZM52.1173 116V116.5H49.9173V123H49.3773V116.5H47.1773V116H52.1173ZM55.4077 117.89C56.001 117.89 56.471 118.073 56.8177 118.44C57.171 118.8 57.3477 119.283 57.3477 119.89V123H56.8377V119.89C56.8377 119.423 56.7077 119.053 56.4477 118.78C56.1943 118.507 55.8343 118.37 55.3677 118.37C54.8543 118.37 54.4343 118.54 54.1077 118.88C53.781 119.22 53.6177 119.713 53.6177 120.36V123H53.1177V116H53.6177V118.95C53.9777 118.243 54.5743 117.89 55.4077 117.89ZM59.2622 118.98C59.5622 118.28 60.1189 117.93 60.9322 117.93V118.41C60.4589 118.41 60.0622 118.563 59.7422 118.87C59.4222 119.17 59.2622 119.62 59.2622 120.22V123H58.7622V118H59.2622V118.98ZM63.893 117.89C64.6264 117.89 65.2197 118.15 65.673 118.67C66.133 119.19 66.363 119.807 66.363 120.52C66.363 120.547 66.3597 120.587 66.353 120.64C66.353 120.693 66.353 120.733 66.353 120.76H61.823C61.883 121.32 62.1064 121.773 62.493 122.12C62.8864 122.46 63.3697 122.63 63.943 122.63C64.343 122.63 64.693 122.547 64.993 122.38C65.293 122.213 65.5197 121.993 65.673 121.72L66.113 121.98C65.9064 122.327 65.613 122.603 65.233 122.81C64.853 123.01 64.4197 123.11 63.933 123.11C63.1664 123.11 62.5364 122.867 62.043 122.38C61.5497 121.887 61.303 121.26 61.303 120.5C61.303 119.753 61.543 119.133 62.023 118.64C62.5097 118.14 63.133 117.89 63.893 117.89ZM63.893 118.37C63.3264 118.37 62.853 118.547 62.473 118.9C62.093 119.253 61.8764 119.71 61.823 120.27H65.843C65.7897 119.677 65.5764 119.213 65.203 118.88C64.8364 118.54 64.3997 118.37 63.893 118.37ZM69.7817 117.89C70.5151 117.89 71.1084 118.15 71.5617 118.67C72.0217 119.19 72.2517 119.807 72.2517 120.52C72.2517 120.547 72.2484 120.587 72.2417 120.64C72.2417 120.693 72.2417 120.733 72.2417 120.76H67.7117C67.7717 121.32 67.9951 121.773 68.3817 122.12C68.7751 122.46 69.2584 122.63 69.8317 122.63C70.2317 122.63 70.5817 122.547 70.8817 122.38C71.1817 122.213 71.4084 121.993 71.5617 121.72L72.0017 121.98C71.7951 122.327 71.5017 122.603 71.1217 122.81C70.7417 123.01 70.3084 123.11 69.8217 123.11C69.0551 123.11 68.4251 122.867 67.9317 122.38C67.4384 121.887 67.1917 121.26 67.1917 120.5C67.1917 119.753 67.4317 119.133 67.9117 118.64C68.3984 118.14 69.0217 117.89 69.7817 117.89ZM69.7817 118.37C69.2151 118.37 68.7417 118.547 68.3617 118.9C67.9817 119.253 67.7651 119.71 67.7117 120.27H71.7317C71.6784 119.677 71.4651 119.213 71.0917 118.88C70.7251 118.54 70.2884 118.37 69.7817 118.37Z" fill="white"/>
<rect x="108" y="14.0001" width="44" height="44" rx="11" fill="white"/>
<path d="M125 41.0001L135 31.0001" stroke="black" stroke-width="2" stroke-linecap="round" stroke-linejoin="round"/>
<path d="M125 31.0001H135V41.0001" stroke="black" stroke-width="2" stroke-linecap="round" stroke-linejoin="round"/>
<defs>
<linearGradient id="paint0_linear_43_21979" x1="153.346" y1="33.1029" x2="137.785" y2="197.611" gradientUnits="userSpaceOnUse">
<stop stop-color="#FE8245"/>
<stop offset="1" stop-color="#FE5704"/>
</linearGradient>
<linearGradient id="paint1_linear_43_21979" x1="118.332" y1="29.7908" x2="102.77" y2="194.299" gradientUnits="userSpaceOnUse">
<stop stop-color="#FE8245"/>
<stop offset="1" stop-color="#FE5704"/>
</linearGradient>
<linearGradient id="paint2_linear_43_21979" x1="82.7413" y1="26.4241" x2="67.1797" y2="190.933" gradientUnits="userSpaceOnUse">
<stop stop-color="#FE8245"/>
<stop offset="1" stop-color="#FE5704"/>
</linearGradient>
<linearGradient id="paint3_linear_43_21979" x1="153.965" y1="33.1615" x2="138.404" y2="197.67" gradientUnits="userSpaceOnUse">
<stop stop-color="#FE8245"/>
<stop offset="1" stop-color="#FE5704"/>
</linearGradient>
<linearGradient id="paint4_linear_43_21979" x1="83.5153" y1="26.4973" x2="67.9537" y2="191.006" gradientUnits="userSpaceOnUse">
<stop stop-color="#FE8245"/>
<stop offset="1" stop-color="#FE5704"/>
</linearGradient>
<linearGradient id="paint5_linear_43_21979" x1="119.133" y1="29.8665" x2="103.572" y2="194.375" gradientUnits="userSpaceOnUse">
<stop stop-color="#FE8245"/>
<stop offset="1" stop-color="#FE5704"/>
</linearGradient>
<linearGradient id="paint6_linear_43_21979" x1="154.894" y1="33.2494" x2="139.333" y2="197.758" gradientUnits="userSpaceOnUse">
<stop stop-color="#FE8245"/>
<stop offset="1" stop-color="#FE5704"/>
</linearGradient>
<linearGradient id="paint7_linear_43_21979" x1="70.4081" y1="46.9962" x2="243.364" y2="41.2162" gradientUnits="userSpaceOnUse">
<stop stop-color="#FE5704"/>
<stop offset="1"/>
</linearGradient>
<linearGradient id="paint8_linear_43_21979" x1="71.3278" y1="74.5164" x2="244.284" y2="68.7364" gradientUnits="userSpaceOnUse">
<stop stop-color="#FE5704"/>
<stop offset="1"/>
</linearGradient>
<linearGradient id="paint9_linear_43_21979" x1="71.2819" y1="73.1411" x2="244.238" y2="67.3611" gradientUnits="userSpaceOnUse">
<stop stop-color="#FE5704"/>
<stop offset="1"/>
</linearGradient>
<linearGradient id="paint10_linear_43_21979" x1="72.2693" y1="102.689" x2="245.225" y2="96.909" gradientUnits="userSpaceOnUse">
<stop stop-color="#FE5704"/>
<stop offset="1"/>
</linearGradient>
<linearGradient id="paint11_linear_43_21979" x1="72.194" y1="100.435" x2="245.15" y2="94.6553" gradientUnits="userSpaceOnUse">
<stop stop-color="#FE5704"/>
<stop offset="1"/>
</linearGradient>
<linearGradient id="paint12_linear_43_21979" x1="73.17" y1="129.64" x2="246.126" y2="123.86" gradientUnits="userSpaceOnUse">
<stop stop-color="#FE5704"/>
<stop offset="1"/>
</linearGradient>
<linearGradient id="paint13_linear_43_21979" x1="74.0902" y1="157.172" x2="247.046" y2="151.392" gradientUnits="userSpaceOnUse">
<stop stop-color="#FE5704"/>
<stop offset="1"/>
</linearGradient>
<linearGradient id="paint14_linear_43_21979" x1="74.9718" y1="183.555" x2="247.928" y2="177.775" gradientUnits="userSpaceOnUse">
<stop stop-color="#FE5704"/>
<stop offset="1"/>
</linearGradient>
<clipPath id="clip0_43_21979">
<rect width="167" height="167" fill="white"/>
</clipPath>
</defs>
</svg>
